<?xml version="1.0" encoding="UTF-8" standalone="no"?><svg xmlns="http://www.w3.org/2000/svg" xmlns:xlink="http://www.w3.org/1999/xlink" clip-rule="evenodd" stroke-miterlimit="4.00" viewBox="0 0 1024 768"><desc>SVG generated by Keynote</desc><defs></defs><g transform="matrix(1.00, 0.00, -0.00, -1.00, 0.0, 768.0)"><path d="M 0.0 768.0 L 1024.0 768.0 L 1024.0 0.0 L 0.0 0.0 Z M 0.0 768.0 " fill="#FEFFFF"></path><image xlink:href="../../EF173449-76EC-4235-A5FD-2B0F37D95D4A/assets/E63DB082694F127BECEB8277B86988E0.png" width="1114.00" height="150.00" transform="matrix(1.00, 0.00, -0.00, -1.00, -45.0, 667.9)" opacity="0.75"></image><text xml:space="preserve" font-family="Helvetica" font-size="64.0" fill="#000000" transform="matrix(1.00, 0.00, -0.00, -1.00, 291.0, 624.0)">M</text><text xml:space="preserve" font-family="Helvetica" font-size="64.0" fill="#000000" transform="matrix(1.00, 0.00, -0.00, -1.00, 344.3, 624.0)">o</text><text xml:space="preserve" font-family="Helvetica" font-size="64.0" fill="#000000" transform="matrix(1.00, 0.00, -0.00, -1.00, 379.9, 624.0)">n</text><text xml:space="preserve" font-family="Helvetica" font-size="64.0" fill="#000000" transform="matrix(1.00, 0.00, -0.00, -1.00, 415.5, 624.0)">t</text><text xml:space="preserve" font-family="Helvetica" font-size="64.0" fill="#000000" transform="matrix(1.00, 0.00, -0.00, -1.00, 433.3, 624.0)">h</text><text xml:space="preserve" font-family="Helvetica" font-size="64.0" fill="#000000" transform="matrix(1.00, 0.00, -0.00, -1.00, 468.9, 624.0)">l</text><text xml:space="preserve" font-family="Helvetica" font-size="64.0" fill="#000000" transform="matrix(1.00, 0.00, -0.00, -1.00, 483.1, 624.0)">y</text><text xml:space="preserve" font-family="Helvetica" font-size="64.0" fill="#000000" transform="matrix(1.00, 0.00, -0.00, -1.00, 515.1, 624.0)"> </text><text xml:space="preserve" font-family="Helvetica" font-size="64.0" fill="#000000" transform="matrix(1.00, 0.00, -0.00, -1.00, 531.8, 624.0)">T</text><text xml:space="preserve" font-family="Helvetica" font-size="64.0" fill="#000000" transform="matrix(1.00, 0.00, -0.00, -1.00, 568.5, 624.0)">r</text><text xml:space="preserve" font-family="Helvetica" font-size="64.0" fill="#000000" transform="matrix(1.00, 0.00, -0.00, -1.00, 589.8, 624.0)">e</text><text xml:space="preserve" font-family="Helvetica" font-size="64.0" fill="#000000" transform="matrix(1.00, 0.00, -0.00, -1.00, 625.4, 624.0)">n</text><text xml:space="preserve" font-family="Helvetica" font-size="64.0" fill="#000000" transform="matrix(1.00, 0.00, -0.00, -1.00, 661.0, 624.0)">d</text><text xml:space="preserve" font-family="Helvetica" font-size="64.0" fill="#000000" transform="matrix(1.00, 0.00, -0.00, -1.00, 696.7, 624.0)">?</text><text xml:space="preserve" font-family="Helvetica-Light" font-size="23.0" fill="#000000" transform="matrix(1.00, 0.00, -0.00, -1.00, 469.0, 51.0)">*</text><text xml:space="preserve" font-family="Helvetica-Light" font-size="23.0" fill="#000000" transform="matrix(1.00, 0.00, -0.00, -1.00, 477.9, 51.0)">C</text><text xml:space="preserve" font-family="Helvetica-Light" font-size="23.0" fill="#000000" transform="matrix(1.00, 0.00, -0.00, -1.00, 494.6, 51.0)">h</text><text xml:space="preserve" font-family="Helvetica-Light" font-size="23.0" fill="#000000" transform="matrix(1.00, 0.00, -0.00, -1.00, 507.3, 51.0)">i</text><text xml:space="preserve" font-family="Helvetica-Light" font-size="23.0" fill="#000000" transform="matrix(1.00, 0.00, -0.00, -1.00, 512.4, 51.0)"> </text><text xml:space="preserve" font-family="Helvetica-Light" font-size="23.0" fill="#000000" transform="matrix(1.00, 0.00, -0.00, -1.00, 518.8, 51.0)">s</text><text xml:space="preserve" font-family="Helvetica-Light" font-size="23.0" fill="#000000" transform="matrix(1.00, 0.00, -0.00, -1.00, 530.3, 51.0)">q</text><text xml:space="preserve" font-family="Helvetica-Light" font-size="23.0" fill="#000000" transform="matrix(1.00, 0.00, -0.00, -1.00, 544.4, 51.0)">u</text><text xml:space="preserve" font-family="Helvetica-Light" font-size="23.0" fill="#000000" transform="matrix(1.00, 0.00, -0.00, -1.00, 557.2, 51.0)">a</text><text xml:space="preserve" font-family="Helvetica-Light" font-size="23.0" fill="#000000" transform="matrix(1.00, 0.00, -0.00, -1.00, 570.0, 51.0)">r</text><text xml:space="preserve" font-family="Helvetica-Light" font-size="23.0" fill="#000000" transform="matrix(1.00, 0.00, -0.00, -1.00, 577.2, 51.0)">e</text><text xml:space="preserve" font-family="Helvetica-Light" font-size="23.0" fill="#000000" transform="matrix(1.00, 0.00, -0.00, -1.00, 590.0, 51.0)"> </text><text xml:space="preserve" font-family="Helvetica-Light" font-size="23.0" fill="#000000" transform="matrix(1.00, 0.00, -0.00, -1.00, 596.4, 51.0)">t</text><text xml:space="preserve" font-family="Helvetica-Light" font-size="23.0" fill="#000000" transform="matrix(1.00, 0.00, -0.00, -1.00, 602.8, 51.0)">e</text><text xml:space="preserve" font-family="Helvetica-Light" font-size="23.0" fill="#000000" transform="matrix(1.00, 0.00, -0.00, -1.00, 615.6, 51.0)">s</text><text xml:space="preserve" font-family="Helvetica-Light" font-size="23.0" fill="#000000" transform="matrix(1.00, 0.00, -0.00, -1.00, 627.1, 51.0)">t</text><text xml:space="preserve" font-family="Helvetica-Light" font-size="23.0" fill="#000000" transform="matrix(1.00, 0.00, -0.00, -1.00, 633.5, 51.0)"> </text><text xml:space="preserve" font-family="Helvetica-Light" font-size="23.0" fill="#000000" transform="matrix(1.00, 0.00, -0.00, -1.00, 639.9, 51.0)">p</text><text xml:space="preserve" font-family="Helvetica-Light" font-size="23.0" fill="#000000" transform="matrix(1.00, 0.00, -0.00, -1.00, 653.9, 51.0)">&lt;</text><text xml:space="preserve" font-family="Helvetica-Light" font-size="23.0" fill="#000000" transform="matrix(1.00, 0.00, -0.00, -1.00, 669.1, 51.0)">0</text><text xml:space="preserve" font-family="Helvetica-Light" font-size="23.0" fill="#000000" transform="matrix(1.00, 0.00, -0.00, -1.00, 681.9, 51.0)">.</text><text xml:space="preserve" font-family="Helvetica-Light" font-size="23.0" fill="#000000" transform="matrix(1.00, 0.00, -0.00, -1.00, 688.3, 51.0)">0</text><text xml:space="preserve" font-family="Helvetica-Light" font-size="23.0" fill="#000000" transform="matrix(1.00, 0.00, -0.00, -1.00, 701.1, 51.0)">1</text><text xml:space="preserve" font-family="Helvetica-Light" font-size="23.0" fill="#000000" transform="matrix(1.00, 0.00, -0.00, -1.00, 713.9, 51.0)"> </text><text xml:space="preserve" font-family="Helvetica-Light" font-size="23.0" fill="#000000" transform="matrix(1.00, 0.00, -0.00, -1.00, 720.3, 51.0)">f</text><text xml:space="preserve" font-family="Helvetica-Light" font-size="23.0" fill="#000000" transform="matrix(1.00, 0.00, -0.00, -1.00, 726.6, 51.0)">o</text><text xml:space="preserve" font-family="Helvetica-Light" font-size="23.0" fill="#000000" transform="matrix(1.00, 0.00, -0.00, -1.00, 739.4, 51.0)">r</text><text xml:space="preserve" font-family="Helvetica-Light" font-size="23.0" fill="#000000" transform="matrix(1.00, 0.00, -0.00, -1.00, 747.1, 51.0)"> </text><text xml:space="preserve" font-family="Helvetica-Light" font-size="23.0" fill="#000000" transform="matrix(1.00, 0.00, -0.00, -1.00, 753.5, 51.0)">e</text><text xml:space="preserve" font-family="Helvetica-Light" font-size="23.0" fill="#000000" transform="matrix(1.00, 0.00, -0.00, -1.00, 766.3, 51.0)">a</text><text xml:space="preserve" font-family="Helvetica-Light" font-size="23.0" fill="#000000" transform="matrix(1.00, 0.00, -0.00, -1.00, 779.1, 51.0)">c</text><text xml:space="preserve" font-family="Helvetica-Light" font-size="23.0" fill="#000000" transform="matrix(1.00, 0.00, -0.00, -1.00, 791.9, 51.0)">h</text><text xml:space="preserve" font-family="Helvetica-Light" font-size="23.0" fill="#000000" transform="matrix(1.00, 0.00, -0.00, -1.00, 804.6, 51.0)"> </text><text xml:space="preserve" font-family="Helvetica-Light" font-size="23.0" fill="#000000" transform="matrix(1.00, 0.00, -0.00, -1.00, 811.0, 51.0)">m</text><text xml:space="preserve" font-family="Helvetica-Light" font-size="23.0" fill="#000000" transform="matrix(1.00, 0.00, -0.00, -1.00, 830.2, 51.0)">o</text><text xml:space="preserve" font-family="Helvetica-Light" font-size="23.0" fill="#000000" transform="matrix(1.00, 0.00, -0.00, -1.00, 843.0, 51.0)">n</text><text xml:space="preserve" font-family="Helvetica-Light" font-size="23.0" fill="#000000" transform="matrix(1.00, 0.00, -0.00, -1.00, 855.8, 51.0)">t</text><text xml:space="preserve" font-family="Helvetica-Light" font-size="23.0" fill="#000000" transform="matrix(1.00, 0.00, -0.00, -1.00, 862.2, 51.0)">h</text><text xml:space="preserve" font-family="Helvetica-Light" font-size="23.0" fill="#000000" transform="matrix(1.00, 0.00, -0.00, -1.00, 875.0, 51.0)">’</text><text xml:space="preserve" font-family="Helvetica-Light" font-size="23.0" fill="#000000" transform="matrix(1.00, 0.00, -0.00, -1.00, 878.4, 51.0)">s</text><text xml:space="preserve" font-family="Helvetica-Light" font-size="23.0" fill="#000000" transform="matrix(1.00, 0.00, -0.00, -1.00, 889.9, 51.0)"> </text><text xml:space="preserve" font-family="Helvetica-Light" font-size="23.0" fill="#000000" transform="matrix(1.00, 0.00, -0.00, -1.00, 896.2, 51.0)">d</text><text xml:space="preserve" font-family="Helvetica-Light" font-size="23.0" fill="#000000" transform="matrix(1.00, 0.00, -0.00, -1.00, 910.3, 51.0)">i</text><text xml:space="preserve" font-family="Helvetica-Light" font-size="23.0" fill="#000000" transform="matrix(1.00, 0.00, -0.00, -1.00, 915.4, 51.0)">s</text><text xml:space="preserve" font-family="Helvetica-Light" font-size="23.0" fill="#000000" transform="matrix(1.00, 0.00, -0.00, -1.00, 926.9, 51.0)">t</text><text xml:space="preserve" font-family="Helvetica-Light" font-size="23.0" fill="#000000" transform="matrix(1.00, 0.00, -0.00, -1.00, 933.3, 51.0)">r</text><text xml:space="preserve" font-family="Helvetica-Light" font-size="23.0" fill="#000000" transform="matrix(1.00, 0.00, -0.00, -1.00, 941.0, 51.0)">i</text><text xml:space="preserve" font-family="Helvetica-Light" font-size="23.0" fill="#000000" transform="matrix(1.00, 0.00, -0.00, -1.00, 946.1, 51.0)">b</text><text xml:space="preserve" font-family="Helvetica-Light" font-size="23.0" fill="#000000" transform="matrix(1.00, 0.00, -0.00, -1.00, 960.1, 51.0)">u</text><text xml:space="preserve" font-family="Helvetica-Light" font-size="23.0" fill="#000000" transform="matrix(1.00, 0.00, -0.00, -1.00, 972.9, 51.0)">t</text><text xml:space="preserve" font-family="Helvetica-Light" font-size="23.0" fill="#000000" transform="matrix(1.00, 0.00, -0.00, -1.00, 979.3, 51.0)">i</text><text xml:space="preserve" font-family="Helvetica-Light" font-size="23.0" fill="#000000" transform="matrix(1.00, 0.00, -0.00, -1.00, 984.4, 51.0)">o</text><text xml:space="preserve" font-family="Helvetica-Light" font-size="23.0" fill="#000000" transform="matrix(1.00, 0.00, -0.00, -1.00, 997.2, 51.0)">n</text><text xml:space="preserve" font-family="Helvetica-Light" font-size="23.0" fill="#000000" transform="matrix(1.00, 0.00, -0.00, -1.00, 1010.0, 51.0)">.</text><image xlink:href="../../EF173449-76EC-4235-A5FD-2B0F37D95D4A/assets/6185E73D5AE542D4E7457E0469733EBB.png" width="700.00" height="466.00" transform="matrix(1.00, 0.00, -0.00, -1.00, 162.0, 588.0)"></image></g></svg>