<?xml version="1.0" encoding="UTF-8" standalone="no"?><svg xmlns="http://www.w3.org/2000/svg" xmlns:xlink="http://www.w3.org/1999/xlink" clip-rule="evenodd" stroke-miterlimit="4.00" viewBox="0 0 1024 768"><desc>SVG generated by Keynote</desc><defs></defs><g transform="matrix(1.00, 0.00, -0.00, -1.00, 0.0, 768.0)"><path d="M 0.0 768.0 L 1024.0 768.0 L 1024.0 0.0 L 0.0 0.0 Z M 0.0 768.0 " fill="#FEFFFF"></path><image xlink:href="../../8DD85801-F4FD-4850-960C-DB299C8F8E74/assets/F60FDCF3BF140728CECB7CDD72F8B6C0.png" width="1249.00" height="150.00" transform="matrix(1.00, 0.00, -0.00, -1.00, -112.1, 672.0)" opacity="0.75"></image><text xml:space="preserve" font-family="Helvetica" font-size="64.0" fill="#000000" transform="matrix(1.00, 0.00, -0.00, -1.00, 156.0, 624.0)">T</text><text xml:space="preserve" font-family="Helvetica" font-size="64.0" fill="#000000" transform="matrix(1.00, 0.00, -0.00, -1.00, 188.0, 624.0)">o</text><text xml:space="preserve" font-family="Helvetica" font-size="64.0" fill="#000000" transform="matrix(1.00, 0.00, -0.00, -1.00, 223.6, 624.0)"> </text><text xml:space="preserve" font-family="Helvetica" font-size="64.0" fill="#000000" transform="matrix(1.00, 0.00, -0.00, -1.00, 241.4, 624.0)">M</text><text xml:space="preserve" font-family="Helvetica" font-size="64.0" fill="#000000" transform="matrix(1.00, 0.00, -0.00, -1.00, 294.7, 624.0)">a</text><text xml:space="preserve" font-family="Helvetica" font-size="64.0" fill="#000000" transform="matrix(1.00, 0.00, -0.00, -1.00, 330.3, 624.0)">k</text><text xml:space="preserve" font-family="Helvetica" font-size="64.0" fill="#000000" transform="matrix(1.00, 0.00, -0.00, -1.00, 362.3, 624.0)">e</text><text xml:space="preserve" font-family="Helvetica" font-size="64.0" fill="#000000" transform="matrix(1.00, 0.00, -0.00, -1.00, 397.9, 624.0)"> </text><text xml:space="preserve" font-family="Helvetica" font-size="64.0" fill="#000000" transform="matrix(1.00, 0.00, -0.00, -1.00, 415.7, 624.0)">F</text><text xml:space="preserve" font-family="Helvetica" font-size="64.0" fill="#000000" transform="matrix(1.00, 0.00, -0.00, -1.00, 454.7, 624.0)">a</text><text xml:space="preserve" font-family="Helvetica" font-size="64.0" fill="#000000" transform="matrix(1.00, 0.00, -0.00, -1.00, 490.3, 624.0)">b</text><text xml:space="preserve" font-family="Helvetica" font-size="64.0" fill="#000000" transform="matrix(1.00, 0.00, -0.00, -1.00, 526.0, 624.0)">u</text><text xml:space="preserve" font-family="Helvetica" font-size="64.0" fill="#000000" transform="matrix(1.00, 0.00, -0.00, -1.00, 561.6, 624.0)">l</text><text xml:space="preserve" font-family="Helvetica" font-size="64.0" fill="#000000" transform="matrix(1.00, 0.00, -0.00, -1.00, 575.8, 624.0)">o</text><text xml:space="preserve" font-family="Helvetica" font-size="64.0" fill="#000000" transform="matrix(1.00, 0.00, -0.00, -1.00, 611.4, 624.0)">u</text><text xml:space="preserve" font-family="Helvetica" font-size="64.0" fill="#000000" transform="matrix(1.00, 0.00, -0.00, -1.00, 647.0, 624.0)">s</text><text xml:space="preserve" font-family="Helvetica" font-size="64.0" fill="#000000" transform="matrix(1.00, 0.00, -0.00, -1.00, 679.0, 624.0)"> </text><text xml:space="preserve" font-family="Helvetica" font-size="64.0" fill="#000000" transform="matrix(1.00, 0.00, -0.00, -1.00, 696.8, 624.0)">B</text><text xml:space="preserve" font-family="Helvetica" font-size="64.0" fill="#000000" transform="matrix(1.00, 0.00, -0.00, -1.00, 739.5, 624.0)">e</text><text xml:space="preserve" font-family="Helvetica" font-size="64.0" fill="#000000" transform="matrix(1.00, 0.00, -0.00, -1.00, 775.1, 624.0)">t</text><text xml:space="preserve" font-family="Helvetica" font-size="64.0" fill="#000000" transform="matrix(1.00, 0.00, -0.00, -1.00, 792.8, 624.0)">t</text><text xml:space="preserve" font-family="Helvetica" font-size="64.0" fill="#000000" transform="matrix(1.00, 0.00, -0.00, -1.00, 810.6, 624.0)">e</text><text xml:space="preserve" font-family="Helvetica" font-size="64.0" fill="#000000" transform="matrix(1.00, 0.00, -0.00, -1.00, 846.2, 624.0)">r</text><text xml:space="preserve" font-family="Helvetica-Light" font-size="36.0" fill="#000000" transform="matrix(1.00, 0.00, -0.00, -1.00, 293.0, 552.0)">M</text><text xml:space="preserve" font-family="Helvetica-Light" font-size="36.0" fill="#000000" transform="matrix(1.00, 0.00, -0.00, -1.00, 323.0, 552.0)">o</text><text xml:space="preserve" font-family="Helvetica-Light" font-size="36.0" fill="#000000" transform="matrix(1.00, 0.00, -0.00, -1.00, 343.0, 552.0)">r</text><text xml:space="preserve" font-family="Helvetica-Light" font-size="36.0" fill="#000000" transform="matrix(1.00, 0.00, -0.00, -1.00, 354.3, 552.0)">e</text><text xml:space="preserve" font-family="Helvetica-Light" font-size="36.0" fill="#000000" transform="matrix(1.00, 0.00, -0.00, -1.00, 374.4, 552.0)"> </text><text xml:space="preserve" font-family="Helvetica-Light" font-size="36.0" fill="#000000" transform="matrix(1.00, 0.00, -0.00, -1.00, 384.4, 552.0)">I</text><text xml:space="preserve" font-family="Helvetica-Light" font-size="36.0" fill="#000000" transform="matrix(1.00, 0.00, -0.00, -1.00, 394.4, 552.0)">n</text><text xml:space="preserve" font-family="Helvetica-Light" font-size="36.0" fill="#000000" transform="matrix(1.00, 0.00, -0.00, -1.00, 414.4, 552.0)">t</text><text xml:space="preserve" font-family="Helvetica-Light" font-size="36.0" fill="#000000" transform="matrix(1.00, 0.00, -0.00, -1.00, 424.4, 552.0)">e</text><text xml:space="preserve" font-family="Helvetica-Light" font-size="36.0" fill="#000000" transform="matrix(1.00, 0.00, -0.00, -1.00, 444.4, 552.0)">r</text><text xml:space="preserve" font-family="Helvetica-Light" font-size="36.0" fill="#000000" transform="matrix(1.00, 0.00, -0.00, -1.00, 456.4, 552.0)">a</text><text xml:space="preserve" font-family="Helvetica-Light" font-size="36.0" fill="#000000" transform="matrix(1.00, 0.00, -0.00, -1.00, 476.4, 552.0)">c</text><text xml:space="preserve" font-family="Helvetica-Light" font-size="36.0" fill="#000000" transform="matrix(1.00, 0.00, -0.00, -1.00, 496.4, 552.0)">t</text><text xml:space="preserve" font-family="Helvetica-Light" font-size="36.0" fill="#000000" transform="matrix(1.00, 0.00, -0.00, -1.00, 506.4, 552.0)">i</text><text xml:space="preserve" font-family="Helvetica-Light" font-size="36.0" fill="#000000" transform="matrix(1.00, 0.00, -0.00, -1.00, 514.4, 552.0)">v</text><text xml:space="preserve" font-family="Helvetica-Light" font-size="36.0" fill="#000000" transform="matrix(1.00, 0.00, -0.00, -1.00, 532.4, 552.0)">e</text><text xml:space="preserve" font-family="Helvetica-Light" font-size="36.0" fill="#000000" transform="matrix(1.00, 0.00, -0.00, -1.00, 552.5, 552.0)"> </text><text xml:space="preserve" font-family="Helvetica-Light" font-size="36.0" fill="#000000" transform="matrix(1.00, 0.00, -0.00, -1.00, 562.5, 552.0)">w</text><text xml:space="preserve" font-family="Helvetica-Light" font-size="36.0" fill="#000000" transform="matrix(1.00, 0.00, -0.00, -1.00, 588.5, 552.0)">i</text><text xml:space="preserve" font-family="Helvetica-Light" font-size="36.0" fill="#000000" transform="matrix(1.00, 0.00, -0.00, -1.00, 596.4, 552.0)">t</text><text xml:space="preserve" font-family="Helvetica-Light" font-size="36.0" fill="#000000" transform="matrix(1.00, 0.00, -0.00, -1.00, 606.5, 552.0)">h</text><text xml:space="preserve" font-family="Helvetica-Light" font-size="36.0" fill="#000000" transform="matrix(1.00, 0.00, -0.00, -1.00, 626.5, 552.0)"> </text><text xml:space="preserve" font-family="Helvetica-Light" font-size="36.0" fill="#000000" transform="matrix(1.00, 0.00, -0.00, -1.00, 636.5, 552.0)">U</text><text xml:space="preserve" font-family="Helvetica-Light" font-size="36.0" fill="#000000" transform="matrix(1.00, 0.00, -0.00, -1.00, 662.5, 552.0)">s</text><text xml:space="preserve" font-family="Helvetica-Light" font-size="36.0" fill="#000000" transform="matrix(1.00, 0.00, -0.00, -1.00, 680.5, 552.0)">e</text><text xml:space="preserve" font-family="Helvetica-Light" font-size="36.0" fill="#000000" transform="matrix(1.00, 0.00, -0.00, -1.00, 700.5, 552.0)">r</text><text xml:space="preserve" font-family="Helvetica-Light" font-size="36.0" fill="#000000" transform="matrix(1.00, 0.00, -0.00, -1.00, 712.5, 552.0)">s</text><path d="M 22.9 0.0 L 880.8 0.0 C 887.4 0.0 890.7 0.0 894.3 1.1 C 898.2 2.5 901.2 5.6 902.6 9.5 C 903.7 13.0 903.7 16.4 903.7 23.0 L 903.7 77.1 C 903.7 83.6 903.7 87.0 902.6 90.5 C 901.2 94.4 898.2 97.5 894.3 98.9 C 890.7 100.0 887.4 100.0 880.7 100.0 L 22.9 100.0 C 16.4 100.0 13.0 100.0 9.5 98.9 C 5.6 97.5 2.5 94.4 1.1 90.5 C 0.0 87.0 0.0 83.6 0.0 77.0 L 0.0 22.9 C 0.0 16.4 0.0 13.0 1.1 9.5 C 2.5 5.6 5.6 2.5 9.5 1.1 C 13.0 0.0 16.4 0.0 23.0 0.0 Z M 22.9 0.0 " fill="none" stroke="#85878C" stroke-width="2.00" transform="matrix(1.00, 0.00, 0.00, -1.00, 53.7, 499.9)"></path><g><clipPath id="clip-468"><path d="M 51.3 399.9 L 959.8 399.9 L 959.8 499.9 L 51.3 499.9 Z M 51.3 399.9 "></path></clipPath><g clip-path="url(#clip-468)"><text xml:space="preserve" font-family="Helvetica-Light" font-size="31.0" fill="#000000" transform="matrix(1.00, 0.00, -0.00, -1.00, 80.0, 457.0)">C</text><text xml:space="preserve" font-family="Helvetica-Light" font-size="31.0" fill="#000000" transform="matrix(1.00, 0.00, -0.00, -1.00, 102.4, 457.0)">a</text><text xml:space="preserve" font-family="Helvetica-Light" font-size="31.0" fill="#000000" transform="matrix(1.00, 0.00, -0.00, -1.00, 119.6, 457.0)">n</text><text xml:space="preserve" font-family="Helvetica-Light" font-size="31.0" fill="#000000" transform="matrix(1.00, 0.00, -0.00, -1.00, 136.9, 457.0)"> </text><text xml:space="preserve" font-family="Helvetica-Light" font-size="31.0" fill="#000000" transform="matrix(1.00, 0.00, -0.00, -1.00, 145.5, 457.0)">w</text><text xml:space="preserve" font-family="Helvetica-Light" font-size="31.0" fill="#000000" transform="matrix(1.00, 0.00, -0.00, -1.00, 167.9, 457.0)">e</text><text xml:space="preserve" font-family="Helvetica-Light" font-size="31.0" fill="#000000" transform="matrix(1.00, 0.00, -0.00, -1.00, 185.1, 457.0)"> </text><text xml:space="preserve" font-family="Helvetica-Light" font-size="31.0" fill="#000000" transform="matrix(1.00, 0.00, -0.00, -1.00, 193.7, 457.0)">p</text><text xml:space="preserve" font-family="Helvetica-Light" font-size="31.0" fill="#000000" transform="matrix(1.00, 0.00, -0.00, -1.00, 212.6, 457.0)">r</text><text xml:space="preserve" font-family="Helvetica-Light" font-size="31.0" fill="#000000" transform="matrix(1.00, 0.00, -0.00, -1.00, 222.4, 457.0)">e</text><text xml:space="preserve" font-family="Helvetica-Light" font-size="31.0" fill="#000000" transform="matrix(1.00, 0.00, -0.00, -1.00, 239.7, 457.0)">d</text><text xml:space="preserve" font-family="Helvetica-Light" font-size="31.0" fill="#000000" transform="matrix(1.00, 0.00, -0.00, -1.00, 258.6, 457.0)">i</text><text xml:space="preserve" font-family="Helvetica-Light" font-size="31.0" fill="#000000" transform="matrix(1.00, 0.00, -0.00, -1.00, 265.5, 457.0)">c</text><text xml:space="preserve" font-family="Helvetica-Light" font-size="31.0" fill="#000000" transform="matrix(1.00, 0.00, -0.00, -1.00, 282.7, 457.0)">t</text><text xml:space="preserve" font-family="Helvetica-Light" font-size="31.0" fill="#000000" transform="matrix(1.00, 0.00, -0.00, -1.00, 291.3, 457.0)"> </text><text xml:space="preserve" font-family="Helvetica-Light" font-size="31.0" fill="#000000" transform="matrix(1.00, 0.00, -0.00, -1.00, 299.9, 457.0)">w</text><text xml:space="preserve" font-family="Helvetica-Light" font-size="31.0" fill="#000000" transform="matrix(1.00, 0.00, -0.00, -1.00, 322.3, 457.0)">h</text><text xml:space="preserve" font-family="Helvetica-Light" font-size="31.0" fill="#000000" transform="matrix(1.00, 0.00, -0.00, -1.00, 339.6, 457.0)">e</text><text xml:space="preserve" font-family="Helvetica-Light" font-size="31.0" fill="#000000" transform="matrix(1.00, 0.00, -0.00, -1.00, 356.8, 457.0)">n</text><text xml:space="preserve" font-family="Helvetica-Light" font-size="31.0" fill="#000000" transform="matrix(1.00, 0.00, -0.00, -1.00, 374.0, 457.0)"> </text><text xml:space="preserve" font-family="Helvetica-Light" font-size="31.0" fill="#000000" transform="matrix(1.00, 0.00, -0.00, -1.00, 382.7, 457.0)">a</text><text xml:space="preserve" font-family="Helvetica-Light" font-size="31.0" fill="#000000" transform="matrix(1.00, 0.00, -0.00, -1.00, 399.9, 457.0)"> </text><text xml:space="preserve" font-family="Helvetica-Light" font-size="31.0" fill="#000000" transform="matrix(1.00, 0.00, -0.00, -1.00, 408.5, 457.0)">u</text><text xml:space="preserve" font-family="Helvetica-Light" font-size="31.0" fill="#000000" transform="matrix(1.00, 0.00, -0.00, -1.00, 425.7, 457.0)">s</text><text xml:space="preserve" font-family="Helvetica-Light" font-size="31.0" fill="#000000" transform="matrix(1.00, 0.00, -0.00, -1.00, 441.2, 457.0)">e</text><text xml:space="preserve" font-family="Helvetica-Light" font-size="31.0" fill="#000000" transform="matrix(1.00, 0.00, -0.00, -1.00, 458.5, 457.0)">r</text><text xml:space="preserve" font-family="Helvetica-Light" font-size="31.0" fill="#000000" transform="matrix(1.00, 0.00, -0.00, -1.00, 468.8, 457.0)"> </text><text xml:space="preserve" font-family="Helvetica-Light" font-size="31.0" fill="#000000" transform="matrix(1.00, 0.00, -0.00, -1.00, 477.4, 457.0)">i</text><text xml:space="preserve" font-family="Helvetica-Light" font-size="31.0" fill="#000000" transform="matrix(1.00, 0.00, -0.00, -1.00, 484.3, 457.0)">s</text><text xml:space="preserve" font-family="Helvetica-Light" font-size="31.0" fill="#000000" transform="matrix(1.00, 0.00, -0.00, -1.00, 499.8, 457.0)"> </text><text xml:space="preserve" font-family="Helvetica-Light" font-size="31.0" fill="#000000" transform="matrix(1.00, 0.00, -0.00, -1.00, 508.4, 457.0)">m</text><text xml:space="preserve" font-family="Helvetica-Light" font-size="31.0" fill="#000000" transform="matrix(1.00, 0.00, -0.00, -1.00, 534.2, 457.0)">o</text><text xml:space="preserve" font-family="Helvetica-Light" font-size="31.0" fill="#000000" transform="matrix(1.00, 0.00, -0.00, -1.00, 551.5, 457.0)">s</text><text xml:space="preserve" font-family="Helvetica-Light" font-size="31.0" fill="#000000" transform="matrix(1.00, 0.00, -0.00, -1.00, 567.0, 457.0)">t</text><text xml:space="preserve" font-family="Helvetica-Light" font-size="31.0" fill="#000000" transform="matrix(1.00, 0.00, -0.00, -1.00, 575.6, 457.0)"> </text><text xml:space="preserve" font-family="Helvetica-Light" font-size="31.0" fill="#000000" transform="matrix(1.00, 0.00, -0.00, -1.00, 584.2, 457.0)">l</text><text xml:space="preserve" font-family="Helvetica-Light" font-size="31.0" fill="#000000" transform="matrix(1.00, 0.00, -0.00, -1.00, 591.1, 457.0)">i</text><text xml:space="preserve" font-family="Helvetica-Light" font-size="31.0" fill="#000000" transform="matrix(1.00, 0.00, -0.00, -1.00, 598.0, 457.0)">k</text><text xml:space="preserve" font-family="Helvetica-Light" font-size="31.0" fill="#000000" transform="matrix(1.00, 0.00, -0.00, -1.00, 613.5, 457.0)">e</text><text xml:space="preserve" font-family="Helvetica-Light" font-size="31.0" fill="#000000" transform="matrix(1.00, 0.00, -0.00, -1.00, 630.7, 457.0)">l</text><text xml:space="preserve" font-family="Helvetica-Light" font-size="31.0" fill="#000000" transform="matrix(1.00, 0.00, -0.00, -1.00, 637.6, 457.0)">y</text><text xml:space="preserve" font-family="Helvetica-Light" font-size="31.0" fill="#000000" transform="matrix(1.00, 0.00, -0.00, -1.00, 653.1, 457.0)"> </text><text xml:space="preserve" font-family="Helvetica-Light" font-size="31.0" fill="#000000" transform="matrix(1.00, 0.00, -0.00, -1.00, 661.7, 457.0)">t</text><text xml:space="preserve" font-family="Helvetica-Light" font-size="31.0" fill="#000000" transform="matrix(1.00, 0.00, -0.00, -1.00, 670.3, 457.0)">o</text><text xml:space="preserve" font-family="Helvetica-Light" font-size="31.0" fill="#000000" transform="matrix(1.00, 0.00, -0.00, -1.00, 687.6, 457.0)"> </text><text xml:space="preserve" font-family="Helvetica-Light" font-size="31.0" fill="#000000" transform="matrix(1.00, 0.00, -0.00, -1.00, 696.2, 457.0)">s</text><text xml:space="preserve" font-family="Helvetica-Light" font-size="31.0" fill="#000000" transform="matrix(1.00, 0.00, -0.00, -1.00, 711.7, 457.0)">k</text><text xml:space="preserve" font-family="Helvetica-Light" font-size="31.0" fill="#000000" transform="matrix(1.00, 0.00, -0.00, -1.00, 727.2, 457.0)">i</text><text xml:space="preserve" font-family="Helvetica-Light" font-size="31.0" fill="#000000" transform="matrix(1.00, 0.00, -0.00, -1.00, 734.1, 457.0)">p</text><text xml:space="preserve" font-family="Helvetica-Light" font-size="31.0" fill="#000000" transform="matrix(1.00, 0.00, -0.00, -1.00, 753.0, 457.0)"> </text><text xml:space="preserve" font-family="Helvetica-Light" font-size="31.0" fill="#000000" transform="matrix(1.00, 0.00, -0.00, -1.00, 761.6, 457.0)">h</text><text xml:space="preserve" font-family="Helvetica-Light" font-size="31.0" fill="#000000" transform="matrix(1.00, 0.00, -0.00, -1.00, 778.9, 457.0)">i</text><text xml:space="preserve" font-family="Helvetica-Light" font-size="31.0" fill="#000000" transform="matrix(1.00, 0.00, -0.00, -1.00, 785.7, 457.0)">s</text><text xml:space="preserve" font-family="Helvetica-Light" font-size="31.0" fill="#000000" transform="matrix(1.00, 0.00, -0.00, -1.00, 801.2, 457.0)">/</text><text xml:space="preserve" font-family="Helvetica-Light" font-size="31.0" fill="#000000" transform="matrix(1.00, 0.00, -0.00, -1.00, 809.9, 457.0)">h</text><text xml:space="preserve" font-family="Helvetica-Light" font-size="31.0" fill="#000000" transform="matrix(1.00, 0.00, -0.00, -1.00, 827.1, 457.0)">e</text><text xml:space="preserve" font-family="Helvetica-Light" font-size="31.0" fill="#000000" transform="matrix(1.00, 0.00, -0.00, -1.00, 844.3, 457.0)">r</text><text xml:space="preserve" font-family="Helvetica-Light" font-size="31.0" fill="#000000" transform="matrix(1.00, 0.00, -0.00, -1.00, 854.7, 457.0)"> </text><text xml:space="preserve" font-family="Helvetica-Light" font-size="31.0" fill="#000000" transform="matrix(1.00, 0.00, -0.00, -1.00, 863.3, 457.0)">h</text><text xml:space="preserve" font-family="Helvetica-Light" font-size="31.0" fill="#000000" transform="matrix(1.00, 0.00, -0.00, -1.00, 880.5, 457.0)">a</text><text xml:space="preserve" font-family="Helvetica-Light" font-size="31.0" fill="#000000" transform="matrix(1.00, 0.00, -0.00, -1.00, 897.7, 457.0)">b</text><text xml:space="preserve" font-family="Helvetica-Light" font-size="31.0" fill="#000000" transform="matrix(1.00, 0.00, -0.00, -1.00, 916.7, 457.0)">i</text><text xml:space="preserve" font-family="Helvetica-Light" font-size="31.0" fill="#000000" transform="matrix(1.00, 0.00, -0.00, -1.00, 923.6, 457.0)">t</text><text xml:space="preserve" font-family="Helvetica-Light" font-size="31.0" fill="#000000" transform="matrix(1.00, 0.00, -0.00, -1.00, 932.2, 457.0)"> </text><text xml:space="preserve" font-family="Helvetica-Light" font-size="31.0" fill="#000000" transform="matrix(1.00, 0.00, -0.00, -1.00, 377.0, 420.0)">w</text><text xml:space="preserve" font-family="Helvetica-Light" font-size="31.0" fill="#000000" transform="matrix(1.00, 0.00, -0.00, -1.00, 399.4, 420.0)">i</text><text xml:space="preserve" font-family="Helvetica-Light" font-size="31.0" fill="#000000" transform="matrix(1.00, 0.00, -0.00, -1.00, 406.3, 420.0)">t</text><text xml:space="preserve" font-family="Helvetica-Light" font-size="31.0" fill="#000000" transform="matrix(1.00, 0.00, -0.00, -1.00, 414.9, 420.0)">h</text><text xml:space="preserve" font-family="Helvetica-Light" font-size="31.0" fill="#000000" transform="matrix(1.00, 0.00, -0.00, -1.00, 432.1, 420.0)"> </text><text xml:space="preserve" font-family="Helvetica-Light" font-size="31.0" fill="#000000" transform="matrix(1.00, 0.00, -0.00, -1.00, 440.7, 420.0)">e</text><text xml:space="preserve" font-family="Helvetica-Light" font-size="31.0" fill="#000000" transform="matrix(1.00, 0.00, -0.00, -1.00, 458.0, 420.0)">x</text><text xml:space="preserve" font-family="Helvetica-Light" font-size="31.0" fill="#000000" transform="matrix(1.00, 0.00, -0.00, -1.00, 473.5, 420.0)">i</text><text xml:space="preserve" font-family="Helvetica-Light" font-size="31.0" fill="#000000" transform="matrix(1.00, 0.00, -0.00, -1.00, 480.4, 420.0)">s</text><text xml:space="preserve" font-family="Helvetica-Light" font-size="31.0" fill="#000000" transform="matrix(1.00, 0.00, -0.00, -1.00, 495.9, 420.0)">t</text><text xml:space="preserve" font-family="Helvetica-Light" font-size="31.0" fill="#000000" transform="matrix(1.00, 0.00, -0.00, -1.00, 504.5, 420.0)">i</text><text xml:space="preserve" font-family="Helvetica-Light" font-size="31.0" fill="#000000" transform="matrix(1.00, 0.00, -0.00, -1.00, 511.4, 420.0)">n</text><text xml:space="preserve" font-family="Helvetica-Light" font-size="31.0" fill="#000000" transform="matrix(1.00, 0.00, -0.00, -1.00, 528.6, 420.0)">g</text><text xml:space="preserve" font-family="Helvetica-Light" font-size="31.0" fill="#000000" transform="matrix(1.00, 0.00, -0.00, -1.00, 547.5, 420.0)"> </text><text xml:space="preserve" font-family="Helvetica-Light" font-size="31.0" fill="#000000" transform="matrix(1.00, 0.00, -0.00, -1.00, 556.1, 420.0)">d</text><text xml:space="preserve" font-family="Helvetica-Light" font-size="31.0" fill="#000000" transform="matrix(1.00, 0.00, -0.00, -1.00, 575.1, 420.0)">a</text><text xml:space="preserve" font-family="Helvetica-Light" font-size="31.0" fill="#000000" transform="matrix(1.00, 0.00, -0.00, -1.00, 592.3, 420.0)">t</text><text xml:space="preserve" font-family="Helvetica-Light" font-size="31.0" fill="#000000" transform="matrix(1.00, 0.00, -0.00, -1.00, 600.9, 420.0)">a</text><text xml:space="preserve" font-family="Helvetica-Light" font-size="31.0" fill="#000000" transform="matrix(1.00, 0.00, -0.00, -1.00, 618.2, 420.0)">?</text></g></g><path d="M 0.0 0.0 L 124.6 0.0 L 126.6 0.0 " fill="none" stroke="#000000" stroke-width="4.00" transform="matrix(-0.71, -0.71, -0.71, 0.71, 440.3, 364.3)"></path><path d="M 346.2 282.1 L 340.3 264.3 L 358.1 270.2 Z M 346.2 282.1 " fill="#000000"></path><path d="M 0.0 0.0 L 124.6 0.0 L 126.6 0.0 " fill="none" stroke="#000000" stroke-width="4.00" transform="matrix(0.71, -0.71, -0.71, -0.71, 578.0, 364.3)"></path><path d="M 660.2 270.2 L 678.0 264.3 L 672.1 282.1 Z M 660.2 270.2 " fill="#000000"></path><text xml:space="preserve" font-family="Helvetica-Light" font-size="36.0" fill="#000000" transform="matrix(1.00, 0.00, -0.00, -1.00, 315.0, 326.0)">Y</text><text xml:space="preserve" font-family="Helvetica-Light" font-size="36.0" fill="#000000" transform="matrix(1.00, 0.00, -0.00, -1.00, 333.7, 326.0)">e</text><text xml:space="preserve" font-family="Helvetica-Light" font-size="36.0" fill="#000000" transform="matrix(1.00, 0.00, -0.00, -1.00, 353.7, 326.0)">s</text><text xml:space="preserve" font-family="Helvetica-Light" font-size="36.0" fill="#000000" transform="matrix(1.00, 0.00, -0.00, -1.00, 639.0, 326.0)">N</text><text xml:space="preserve" font-family="Helvetica-Light" font-size="36.0" fill="#000000" transform="matrix(1.00, 0.00, -0.00, -1.00, 665.0, 326.0)">o</text><path d="M 22.9 0.0 L 415.6 0.0 C 422.1 0.0 425.5 0.0 429.0 1.1 C 432.9 2.5 436.0 5.6 437.4 9.5 C 438.5 13.0 438.5 16.4 438.5 23.0 L 438.5 77.1 C 438.5 83.6 438.5 87.0 437.4 90.5 C 436.0 94.4 432.9 97.5 429.0 98.9 C 425.5 100.0 422.1 100.0 415.5 100.0 L 22.9 100.0 C 16.4 100.0 13.0 100.0 9.5 98.9 C 5.6 97.5 2.5 94.4 1.1 90.5 C 0.0 87.0 0.0 83.6 0.0 77.0 L 0.0 22.9 C 0.0 16.4 0.0 13.0 1.1 9.5 C 2.5 5.6 5.6 2.5 9.5 1.1 C 13.0 0.0 16.4 0.0 23.0 0.0 Z M 22.9 0.0 " fill="none" stroke="#85878C" stroke-width="2.00" transform="matrix(1.00, 0.00, 0.00, -1.00, 56.8, 230.1)"></path><g><clipPath id="clip-469"><path d="M 54.4 130.1 L 497.6 130.1 L 497.6 230.1 L 54.4 230.1 Z M 54.4 130.1 "></path></clipPath><g clip-path="url(#clip-469)"><text xml:space="preserve" font-family="Helvetica-Light" font-size="31.0" fill="#000000" transform="matrix(1.00, 0.00, -0.00, -1.00, 128.0, 187.0)">T</text><text xml:space="preserve" font-family="Helvetica-Light" font-size="31.0" fill="#000000" transform="matrix(1.00, 0.00, -0.00, -1.00, 141.8, 187.0)">o</text><text xml:space="preserve" font-family="Helvetica-Light" font-size="31.0" fill="#000000" transform="matrix(1.00, 0.00, -0.00, -1.00, 159.0, 187.0)"> </text><text xml:space="preserve" font-family="Helvetica-Light" font-size="31.0" fill="#000000" transform="matrix(1.00, 0.00, -0.00, -1.00, 167.6, 187.0)">s</text><text xml:space="preserve" font-family="Helvetica-Light" font-size="31.0" fill="#000000" transform="matrix(1.00, 0.00, -0.00, -1.00, 183.1, 187.0)">e</text><text xml:space="preserve" font-family="Helvetica-Light" font-size="31.0" fill="#000000" transform="matrix(1.00, 0.00, -0.00, -1.00, 200.4, 187.0)">n</text><text xml:space="preserve" font-family="Helvetica-Light" font-size="31.0" fill="#000000" transform="matrix(1.00, 0.00, -0.00, -1.00, 217.6, 187.0)">d</text><text xml:space="preserve" font-family="Helvetica-Light" font-size="31.0" fill="#000000" transform="matrix(1.00, 0.00, -0.00, -1.00, 236.6, 187.0)"> </text><text xml:space="preserve" font-family="Helvetica-Light" font-size="31.0" fill="#000000" transform="matrix(1.00, 0.00, -0.00, -1.00, 245.2, 187.0)">p</text><text xml:space="preserve" font-family="Helvetica-Light" font-size="31.0" fill="#000000" transform="matrix(1.00, 0.00, -0.00, -1.00, 264.1, 187.0)">e</text><text xml:space="preserve" font-family="Helvetica-Light" font-size="31.0" fill="#000000" transform="matrix(1.00, 0.00, -0.00, -1.00, 281.4, 187.0)">r</text><text xml:space="preserve" font-family="Helvetica-Light" font-size="31.0" fill="#000000" transform="matrix(1.00, 0.00, -0.00, -1.00, 291.7, 187.0)">s</text><text xml:space="preserve" font-family="Helvetica-Light" font-size="31.0" fill="#000000" transform="matrix(1.00, 0.00, -0.00, -1.00, 307.2, 187.0)">o</text><text xml:space="preserve" font-family="Helvetica-Light" font-size="31.0" fill="#000000" transform="matrix(1.00, 0.00, -0.00, -1.00, 324.4, 187.0)">n</text><text xml:space="preserve" font-family="Helvetica-Light" font-size="31.0" fill="#000000" transform="matrix(1.00, 0.00, -0.00, -1.00, 341.7, 187.0)">a</text><text xml:space="preserve" font-family="Helvetica-Light" font-size="31.0" fill="#000000" transform="matrix(1.00, 0.00, -0.00, -1.00, 358.9, 187.0)">l</text><text xml:space="preserve" font-family="Helvetica-Light" font-size="31.0" fill="#000000" transform="matrix(1.00, 0.00, -0.00, -1.00, 365.8, 187.0)">i</text><text xml:space="preserve" font-family="Helvetica-Light" font-size="31.0" fill="#000000" transform="matrix(1.00, 0.00, -0.00, -1.00, 372.7, 187.0)">z</text><text xml:space="preserve" font-family="Helvetica-Light" font-size="31.0" fill="#000000" transform="matrix(1.00, 0.00, -0.00, -1.00, 388.2, 187.0)">e</text><text xml:space="preserve" font-family="Helvetica-Light" font-size="31.0" fill="#000000" transform="matrix(1.00, 0.00, -0.00, -1.00, 405.4, 187.0)">d</text><text xml:space="preserve" font-family="Helvetica-Light" font-size="31.0" fill="#000000" transform="matrix(1.00, 0.00, -0.00, -1.00, 424.3, 187.0)"> </text><text xml:space="preserve" font-family="Helvetica-Light" font-size="31.0" fill="#000000" transform="matrix(1.00, 0.00, -0.00, -1.00, 85.0, 150.0)">n</text><text xml:space="preserve" font-family="Helvetica-Light" font-size="31.0" fill="#000000" transform="matrix(1.00, 0.00, -0.00, -1.00, 102.2, 150.0)">o</text><text xml:space="preserve" font-family="Helvetica-Light" font-size="31.0" fill="#000000" transform="matrix(1.00, 0.00, -0.00, -1.00, 119.5, 150.0)">t</text><text xml:space="preserve" font-family="Helvetica-Light" font-size="31.0" fill="#000000" transform="matrix(1.00, 0.00, -0.00, -1.00, 128.1, 150.0)">i</text><text xml:space="preserve" font-family="Helvetica-Light" font-size="31.0" fill="#000000" transform="matrix(1.00, 0.00, -0.00, -1.00, 135.0, 150.0)">ï¬</text><text xml:space="preserve" font-family="Helvetica-Light" font-size="31.0" fill="#000000" transform="matrix(1.00, 0.00, -0.00, -1.00, 150.5, 150.0)">c</text><text xml:space="preserve" font-family="Helvetica-Light" font-size="31.0" fill="#000000" transform="matrix(1.00, 0.00, -0.00, -1.00, 167.7, 150.0)">a</text><text xml:space="preserve" font-family="Helvetica-Light" font-size="31.0" fill="#000000" transform="matrix(1.00, 0.00, -0.00, -1.00, 184.9, 150.0)">t</text><text xml:space="preserve" font-family="Helvetica-Light" font-size="31.0" fill="#000000" transform="matrix(1.00, 0.00, -0.00, -1.00, 193.6, 150.0)">i</text><text xml:space="preserve" font-family="Helvetica-Light" font-size="31.0" fill="#000000" transform="matrix(1.00, 0.00, -0.00, -1.00, 200.4, 150.0)">o</text><text xml:space="preserve" font-family="Helvetica-Light" font-size="31.0" fill="#000000" transform="matrix(1.00, 0.00, -0.00, -1.00, 217.7, 150.0)">n</text><text xml:space="preserve" font-family="Helvetica-Light" font-size="31.0" fill="#000000" transform="matrix(1.00, 0.00, -0.00, -1.00, 234.9, 150.0)"> </text><text xml:space="preserve" font-family="Helvetica-Light" font-size="31.0" fill="#000000" transform="matrix(1.00, 0.00, -0.00, -1.00, 243.5, 150.0)">t</text><text xml:space="preserve" font-family="Helvetica-Light" font-size="31.0" fill="#000000" transform="matrix(1.00, 0.00, -0.00, -1.00, 252.2, 150.0)">o</text><text xml:space="preserve" font-family="Helvetica-Light" font-size="31.0" fill="#000000" transform="matrix(1.00, 0.00, -0.00, -1.00, 269.4, 150.0)"> </text><text xml:space="preserve" font-family="Helvetica-Light" font-size="31.0" fill="#000000" transform="matrix(1.00, 0.00, -0.00, -1.00, 278.0, 150.0)">r</text><text xml:space="preserve" font-family="Helvetica-Light" font-size="31.0" fill="#000000" transform="matrix(1.00, 0.00, -0.00, -1.00, 287.8, 150.0)">e</text><text xml:space="preserve" font-family="Helvetica-Light" font-size="31.0" fill="#000000" transform="matrix(1.00, 0.00, -0.00, -1.00, 305.0, 150.0)">m</text><text xml:space="preserve" font-family="Helvetica-Light" font-size="31.0" fill="#000000" transform="matrix(1.00, 0.00, -0.00, -1.00, 330.8, 150.0)">i</text><text xml:space="preserve" font-family="Helvetica-Light" font-size="31.0" fill="#000000" transform="matrix(1.00, 0.00, -0.00, -1.00, 337.7, 150.0)">n</text><text xml:space="preserve" font-family="Helvetica-Light" font-size="31.0" fill="#000000" transform="matrix(1.00, 0.00, -0.00, -1.00, 354.9, 150.0)">d</text><text xml:space="preserve" font-family="Helvetica-Light" font-size="31.0" fill="#000000" transform="matrix(1.00, 0.00, -0.00, -1.00, 373.9, 150.0)"> </text><text xml:space="preserve" font-family="Helvetica-Light" font-size="31.0" fill="#000000" transform="matrix(1.00, 0.00, -0.00, -1.00, 382.5, 150.0)">u</text><text xml:space="preserve" font-family="Helvetica-Light" font-size="31.0" fill="#000000" transform="matrix(1.00, 0.00, -0.00, -1.00, 399.7, 150.0)">s</text><text xml:space="preserve" font-family="Helvetica-Light" font-size="31.0" fill="#000000" transform="matrix(1.00, 0.00, -0.00, -1.00, 415.2, 150.0)">e</text><text xml:space="preserve" font-family="Helvetica-Light" font-size="31.0" fill="#000000" transform="matrix(1.00, 0.00, -0.00, -1.00, 432.5, 150.0)">r</text><text xml:space="preserve" font-family="Helvetica-Light" font-size="31.0" fill="#000000" transform="matrix(1.00, 0.00, -0.00, -1.00, 442.8, 150.0)">s</text><text xml:space="preserve" font-family="Helvetica-Light" font-size="31.0" fill="#000000" transform="matrix(1.00, 0.00, -0.00, -1.00, 458.3, 150.0)">.</text></g></g><path d="M 554.7 230.1 L 947.3 230.1 C 953.9 230.1 957.3 230.1 960.8 229.0 C 964.7 227.5 967.7 224.5 969.2 220.6 C 970.3 217.1 970.3 213.7 970.3 207.0 L 970.3 153.0 C 970.3 146.4 970.3 143.1 969.2 139.6 C 967.7 135.7 964.7 132.6 960.8 131.2 C 957.3 130.1 953.9 130.1 947.2 130.1 L 554.7 130.1 C 548.1 130.1 544.8 130.1 541.3 131.2 C 537.4 132.6 534.3 135.7 532.9 139.6 C 531.8 143.1 531.8 146.4 531.8 153.1 L 531.8 207.1 C 531.8 213.7 531.8 217.1 532.9 220.6 C 534.3 224.5 537.4 227.5 541.3 229.0 C 544.8 230.1 548.1 230.1 554.8 230.1 Z M 554.7 230.1 " fill="#FF2600"></path><path d="M 22.9 0.0 L 415.6 0.0 C 422.1 0.0 425.5 0.0 429.0 1.1 C 432.9 2.5 436.0 5.6 437.4 9.5 C 438.5 13.0 438.5 16.4 438.5 23.0 L 438.5 77.1 C 438.5 83.6 438.5 87.0 437.4 90.5 C 436.0 94.4 432.9 97.5 429.0 98.9 C 425.5 100.0 422.1 100.0 415.5 100.0 L 22.9 100.0 C 16.4 100.0 13.0 100.0 9.5 98.9 C 5.6 97.5 2.5 94.4 1.1 90.5 C 0.0 87.0 0.0 83.6 0.0 77.0 L 0.0 22.9 C 0.0 16.4 0.0 13.0 1.1 9.5 C 2.5 5.6 5.6 2.5 9.5 1.1 C 13.0 0.0 16.4 0.0 23.0 0.0 Z M 22.9 0.0 " fill="none" stroke="#85878C" stroke-width="2.00" transform="matrix(1.00, 0.00, 0.00, -1.00, 531.8, 230.1)"></path><g><clipPath id="clip-470"><path d="M 529.4 130.1 L 972.6 130.1 L 972.6 230.1 L 529.4 230.1 Z M 529.4 130.1 "></path></clipPath><g clip-path="url(#clip-470)"><text xml:space="preserve" font-family="Helvetica-Bold" font-weight="bold" font-size="31.0" fill="#FEFFFE" transform="matrix(1.00, 0.00, -0.00, -1.00, 557.0, 187.0)">W</text><text xml:space="preserve" font-family="Helvetica-Bold" font-weight="bold" font-size="31.0" fill="#FEFFFE" transform="matrix(1.00, 0.00, -0.00, -1.00, 586.3, 187.0)">h</text><text xml:space="preserve" font-family="Helvetica-Bold" font-weight="bold" font-size="31.0" fill="#FEFFFE" transform="matrix(1.00, 0.00, -0.00, -1.00, 605.2, 187.0)">a</text><text xml:space="preserve" font-family="Helvetica-Bold" font-weight="bold" font-size="31.0" fill="#FEFFFE" transform="matrix(1.00, 0.00, -0.00, -1.00, 622.4, 187.0)">t</text><text xml:space="preserve" font-family="Helvetica-Bold" font-weight="bold" font-size="31.0" fill="#FEFFFE" transform="matrix(1.00, 0.00, -0.00, -1.00, 632.8, 187.0)"> </text><text xml:space="preserve" font-family="Helvetica-Bold" font-weight="bold" font-size="31.0" fill="#FEFFFE" transform="matrix(1.00, 0.00, -0.00, -1.00, 641.4, 187.0)">c</text><text xml:space="preserve" font-family="Helvetica-Bold" font-weight="bold" font-size="31.0" fill="#FEFFFE" transform="matrix(1.00, 0.00, -0.00, -1.00, 658.6, 187.0)">a</text><text xml:space="preserve" font-family="Helvetica-Bold" font-weight="bold" font-size="31.0" fill="#FEFFFE" transform="matrix(1.00, 0.00, -0.00, -1.00, 675.9, 187.0)">n</text><text xml:space="preserve" font-family="Helvetica-Bold" font-weight="bold" font-size="31.0" fill="#FEFFFE" transform="matrix(1.00, 0.00, -0.00, -1.00, 694.8, 187.0)"> </text><text xml:space="preserve" font-family="Helvetica-Bold" font-weight="bold" font-size="31.0" fill="#FEFFFE" transform="matrix(1.00, 0.00, -0.00, -1.00, 703.4, 187.0)">w</text><text xml:space="preserve" font-family="Helvetica-Bold" font-weight="bold" font-size="31.0" fill="#FEFFFE" transform="matrix(1.00, 0.00, -0.00, -1.00, 727.5, 187.0)">e</text><text xml:space="preserve" font-family="Helvetica-Bold" font-weight="bold" font-size="31.0" fill="#FEFFFE" transform="matrix(1.00, 0.00, -0.00, -1.00, 744.7, 187.0)"> </text><text xml:space="preserve" font-family="Helvetica-Bold" font-weight="bold" font-size="31.0" fill="#FEFFFE" transform="matrix(1.00, 0.00, -0.00, -1.00, 753.4, 187.0)">d</text><text xml:space="preserve" font-family="Helvetica-Bold" font-weight="bold" font-size="31.0" fill="#FEFFFE" transform="matrix(1.00, 0.00, -0.00, -1.00, 772.3, 187.0)">o</text><text xml:space="preserve" font-family="Helvetica-Bold" font-weight="bold" font-size="31.0" fill="#FEFFFE" transform="matrix(1.00, 0.00, -0.00, -1.00, 791.2, 187.0)"> </text><text xml:space="preserve" font-family="Helvetica-Bold" font-weight="bold" font-size="31.0" fill="#FEFFFE" transform="matrix(1.00, 0.00, -0.00, -1.00, 799.8, 187.0)">t</text><text xml:space="preserve" font-family="Helvetica-Bold" font-weight="bold" font-size="31.0" fill="#FEFFFE" transform="matrix(1.00, 0.00, -0.00, -1.00, 810.1, 187.0)">o</text><text xml:space="preserve" font-family="Helvetica-Bold" font-weight="bold" font-size="31.0" fill="#FEFFFE" transform="matrix(1.00, 0.00, -0.00, -1.00, 829.1, 187.0)"> </text><text xml:space="preserve" font-family="Helvetica-Bold" font-weight="bold" font-size="31.0" fill="#FEFFFE" transform="matrix(1.00, 0.00, -0.00, -1.00, 837.7, 187.0)">m</text><text xml:space="preserve" font-family="Helvetica-Bold" font-weight="bold" font-size="31.0" fill="#FEFFFE" transform="matrix(1.00, 0.00, -0.00, -1.00, 865.2, 187.0)">a</text><text xml:space="preserve" font-family="Helvetica-Bold" font-weight="bold" font-size="31.0" fill="#FEFFFE" transform="matrix(1.00, 0.00, -0.00, -1.00, 882.5, 187.0)">k</text><text xml:space="preserve" font-family="Helvetica-Bold" font-weight="bold" font-size="31.0" fill="#FEFFFE" transform="matrix(1.00, 0.00, -0.00, -1.00, 899.7, 187.0)">e</text><text xml:space="preserve" font-family="Helvetica-Bold" font-weight="bold" font-size="31.0" fill="#FEFFFE" transform="matrix(1.00, 0.00, -0.00, -1.00, 917.0, 187.0)"> </text><text xml:space="preserve" font-family="Helvetica-Bold" font-weight="bold" font-size="31.0" fill="#FEFFFE" transform="matrix(1.00, 0.00, -0.00, -1.00, 925.6, 187.0)">i</text><text xml:space="preserve" font-family="Helvetica-Bold" font-weight="bold" font-size="31.0" fill="#FEFFFE" transform="matrix(1.00, 0.00, -0.00, -1.00, 934.2, 187.0)">t</text><text xml:space="preserve" font-family="Helvetica-Bold" font-weight="bold" font-size="31.0" fill="#FEFFFE" transform="matrix(1.00, 0.00, -0.00, -1.00, 944.5, 187.0)"> </text><text xml:space="preserve" font-family="Helvetica-Bold" font-weight="bold" font-size="31.0" fill="#FEFFFE" transform="matrix(1.00, 0.00, -0.00, -1.00, 686.0, 150.0)">h</text><text xml:space="preserve" font-family="Helvetica-Bold" font-weight="bold" font-size="31.0" fill="#FEFFFE" transform="matrix(1.00, 0.00, -0.00, -1.00, 704.9, 150.0)">a</text><text xml:space="preserve" font-family="Helvetica-Bold" font-weight="bold" font-size="31.0" fill="#FEFFFE" transform="matrix(1.00, 0.00, -0.00, -1.00, 722.2, 150.0)">p</text><text xml:space="preserve" font-family="Helvetica-Bold" font-weight="bold" font-size="31.0" fill="#FEFFFE" transform="matrix(1.00, 0.00, -0.00, -1.00, 741.1, 150.0)">p</text><text xml:space="preserve" font-family="Helvetica-Bold" font-weight="bold" font-size="31.0" fill="#FEFFFE" transform="matrix(1.00, 0.00, -0.00, -1.00, 760.0, 150.0)">e</text><text xml:space="preserve" font-family="Helvetica-Bold" font-weight="bold" font-size="31.0" fill="#FEFFFE" transform="matrix(1.00, 0.00, -0.00, -1.00, 777.3, 150.0)">n</text><text xml:space="preserve" font-family="Helvetica-Bold" font-weight="bold" font-size="31.0" fill="#FEFFFE" transform="matrix(1.00, 0.00, -0.00, -1.00, 796.2, 150.0)">?</text></g></g></g></svg>