<?xml version="1.0" encoding="UTF-8" standalone="no"?><svg xmlns="http://www.w3.org/2000/svg" xmlns:xlink="http://www.w3.org/1999/xlink" clip-rule="evenodd" stroke-miterlimit="4.00" viewBox="0 0 1024 768"><desc>SVG generated by Keynote</desc><defs></defs><g transform="matrix(1.00, 0.00, -0.00, -1.00, 0.0, 768.0)"><path d="M 0.0 768.0 L 1024.0 768.0 L 1024.0 0.0 L 0.0 0.0 Z M 0.0 768.0 " fill="#FEFFFE"></path><image xlink:href="../../5BA23000-6F2D-4574-9D2F-430C3F2B5B97/assets/FEB01D6EAADAA1164DE7C1455B780448.png" width="1230.00" height="150.00" transform="matrix(1.00, 0.00, -0.00, -1.00, -102.7, 674.6)" opacity="0.75"></image><text xml:space="preserve" font-family="Helvetica" font-size="64.0" fill="#000000" transform="matrix(1.00, 0.00, -0.00, -1.00, 160.0, 624.0)">H</text><text xml:space="preserve" font-family="Helvetica" font-size="64.0" fill="#000000" transform="matrix(1.00, 0.00, -0.00, -1.00, 206.2, 624.0)">a</text><text xml:space="preserve" font-family="Helvetica" font-size="64.0" fill="#000000" transform="matrix(1.00, 0.00, -0.00, -1.00, 241.8, 624.0)">b</text><text xml:space="preserve" font-family="Helvetica" font-size="64.0" fill="#000000" transform="matrix(1.00, 0.00, -0.00, -1.00, 277.4, 624.0)">i</text><text xml:space="preserve" font-family="Helvetica" font-size="64.0" fill="#000000" transform="matrix(1.00, 0.00, -0.00, -1.00, 291.7, 624.0)">t</text><text xml:space="preserve" font-family="Helvetica" font-size="64.0" fill="#000000" transform="matrix(1.00, 0.00, -0.00, -1.00, 309.4, 624.0)">s</text><text xml:space="preserve" font-family="Helvetica" font-size="64.0" fill="#000000" transform="matrix(1.00, 0.00, -0.00, -1.00, 341.4, 624.0)"> </text><text xml:space="preserve" font-family="Helvetica" font-size="64.0" fill="#000000" transform="matrix(1.00, 0.00, -0.00, -1.00, 359.2, 624.0)">a</text><text xml:space="preserve" font-family="Helvetica" font-size="64.0" fill="#000000" transform="matrix(1.00, 0.00, -0.00, -1.00, 394.8, 624.0)">r</text><text xml:space="preserve" font-family="Helvetica" font-size="64.0" fill="#000000" transform="matrix(1.00, 0.00, -0.00, -1.00, 416.1, 624.0)">e</text><text xml:space="preserve" font-family="Helvetica" font-size="64.0" fill="#000000" transform="matrix(1.00, 0.00, -0.00, -1.00, 451.7, 624.0)"> </text><text xml:space="preserve" font-family="Helvetica" font-size="64.0" fill="#000000" transform="matrix(1.00, 0.00, -0.00, -1.00, 469.5, 624.0)">S</text><text xml:space="preserve" font-family="Helvetica" font-size="64.0" fill="#000000" transform="matrix(1.00, 0.00, -0.00, -1.00, 512.2, 624.0)">e</text><text xml:space="preserve" font-family="Helvetica" font-size="64.0" fill="#000000" transform="matrix(1.00, 0.00, -0.00, -1.00, 547.8, 624.0)">l</text><text xml:space="preserve" font-family="Helvetica" font-size="64.0" fill="#000000" transform="matrix(1.00, 0.00, -0.00, -1.00, 562.0, 624.0)">f</text><text xml:space="preserve" font-family="Helvetica" font-size="64.0" fill="#000000" transform="matrix(1.00, 0.00, -0.00, -1.00, 579.8, 624.0)">-</text><text xml:space="preserve" font-family="Helvetica" font-size="64.0" fill="#000000" transform="matrix(1.00, 0.00, -0.00, -1.00, 601.1, 624.0)">R</text><text xml:space="preserve" font-family="Helvetica" font-size="64.0" fill="#000000" transform="matrix(1.00, 0.00, -0.00, -1.00, 647.3, 624.0)">e</text><text xml:space="preserve" font-family="Helvetica" font-size="64.0" fill="#000000" transform="matrix(1.00, 0.00, -0.00, -1.00, 683.0, 624.0)">p</text><text xml:space="preserve" font-family="Helvetica" font-size="64.0" fill="#000000" transform="matrix(1.00, 0.00, -0.00, -1.00, 718.6, 624.0)">o</text><text xml:space="preserve" font-family="Helvetica" font-size="64.0" fill="#000000" transform="matrix(1.00, 0.00, -0.00, -1.00, 754.2, 624.0)">r</text><text xml:space="preserve" font-family="Helvetica" font-size="64.0" fill="#000000" transform="matrix(1.00, 0.00, -0.00, -1.00, 775.5, 624.0)">t</text><text xml:space="preserve" font-family="Helvetica" font-size="64.0" fill="#000000" transform="matrix(1.00, 0.00, -0.00, -1.00, 793.2, 624.0)">e</text><text xml:space="preserve" font-family="Helvetica" font-size="64.0" fill="#000000" transform="matrix(1.00, 0.00, -0.00, -1.00, 828.9, 624.0)">d</text><text xml:space="preserve" font-family="Helvetica-Light" font-size="22.5" fill="#000000" transform="matrix(1.00, 0.00, -0.00, -1.00, 87.3, 409.8)">•</text><text xml:space="preserve" font-family="Helvetica-Light" font-size="30.0" fill="#000000" transform="matrix(1.00, 0.00, -0.00, -1.00, 114.0, 407.0)">M</text><text xml:space="preserve" font-family="Helvetica-Light" font-size="30.0" fill="#000000" transform="matrix(1.00, 0.00, -0.00, -1.00, 139.0, 407.0)">a</text><text xml:space="preserve" font-family="Helvetica-Light" font-size="30.0" fill="#000000" transform="matrix(1.00, 0.00, -0.00, -1.00, 155.7, 407.0)">r</text><text xml:space="preserve" font-family="Helvetica-Light" font-size="30.0" fill="#000000" transform="matrix(1.00, 0.00, -0.00, -1.00, 165.1, 407.0)">c</text><text xml:space="preserve" font-family="Helvetica-Light" font-size="30.0" fill="#000000" transform="matrix(1.00, 0.00, -0.00, -1.00, 181.8, 407.0)">h</text><text xml:space="preserve" font-family="Helvetica-Light" font-size="30.0" fill="#000000" transform="matrix(1.00, 0.00, -0.00, -1.00, 198.5, 407.0)"> </text><text xml:space="preserve" font-family="Helvetica-Light" font-size="30.0" fill="#000000" transform="matrix(1.00, 0.00, -0.00, -1.00, 206.8, 407.0)">-</text><text xml:space="preserve" font-family="Helvetica-Light" font-size="30.0" fill="#000000" transform="matrix(1.00, 0.00, -0.00, -1.00, 216.8, 407.0)"> </text><text xml:space="preserve" font-family="Helvetica-Light" font-size="30.0" fill="#000000" transform="matrix(1.00, 0.00, -0.00, -1.00, 225.2, 407.0)">A</text><text xml:space="preserve" font-family="Helvetica-Light" font-size="30.0" fill="#000000" transform="matrix(1.00, 0.00, -0.00, -1.00, 245.2, 407.0)">u</text><text xml:space="preserve" font-family="Helvetica-Light" font-size="30.0" fill="#000000" transform="matrix(1.00, 0.00, -0.00, -1.00, 261.8, 407.0)">g</text><text xml:space="preserve" font-family="Helvetica-Light" font-size="30.0" fill="#000000" transform="matrix(1.00, 0.00, -0.00, -1.00, 280.2, 407.0)">u</text><text xml:space="preserve" font-family="Helvetica-Light" font-size="30.0" fill="#000000" transform="matrix(1.00, 0.00, -0.00, -1.00, 296.9, 407.0)">s</text><text xml:space="preserve" font-family="Helvetica-Light" font-size="30.0" fill="#000000" transform="matrix(1.00, 0.00, -0.00, -1.00, 311.9, 407.0)">t</text><text xml:space="preserve" font-family="Helvetica-Light" font-size="30.0" fill="#000000" transform="matrix(1.00, 0.00, -0.00, -1.00, 320.2, 407.0)"> </text><text xml:space="preserve" font-family="Helvetica-Light" font-size="30.0" fill="#000000" transform="matrix(1.00, 0.00, -0.00, -1.00, 328.5, 407.0)">2</text><text xml:space="preserve" font-family="Helvetica-Light" font-size="30.0" fill="#000000" transform="matrix(1.00, 0.00, -0.00, -1.00, 345.2, 407.0)">0</text><text xml:space="preserve" font-family="Helvetica-Light" font-size="30.0" fill="#000000" transform="matrix(1.00, 0.00, -0.00, -1.00, 361.9, 407.0)">1</text><text xml:space="preserve" font-family="Helvetica-Light" font-size="30.0" fill="#000000" transform="matrix(1.00, 0.00, -0.00, -1.00, 378.6, 407.0)">5</text><text xml:space="preserve" font-family="Helvetica-Light" font-size="30.0" fill="#000000" transform="matrix(1.00, 0.00, -0.00, -1.00, 395.3, 407.0)">.</text><text xml:space="preserve" font-family="Helvetica-Light" font-size="30.0" fill="#000000" transform="matrix(1.00, 0.00, -0.00, -1.00, 403.6, 407.0)"> </text><text xml:space="preserve" font-family="Helvetica-Light" font-size="22.5" fill="#000000" transform="matrix(1.00, 0.00, -0.00, -1.00, 87.3, 341.8)">•</text><text xml:space="preserve" font-family="Helvetica-Light" font-size="30.0" fill="#000000" transform="matrix(1.00, 0.00, -0.00, -1.00, 114.0, 339.0)">~</text><text xml:space="preserve" font-family="Helvetica-Light" font-size="30.0" fill="#000000" transform="matrix(1.00, 0.00, -0.00, -1.00, 133.8, 339.0)">2</text><text xml:space="preserve" font-family="Helvetica-Light" font-size="30.0" fill="#000000" transform="matrix(1.00, 0.00, -0.00, -1.00, 150.5, 339.0)">5</text><text xml:space="preserve" font-family="Helvetica-Light" font-size="30.0" fill="#000000" transform="matrix(1.00, 0.00, -0.00, -1.00, 167.2, 339.0)">,</text><text xml:space="preserve" font-family="Helvetica-Light" font-size="30.0" fill="#000000" transform="matrix(1.00, 0.00, -0.00, -1.00, 175.5, 339.0)">0</text><text xml:space="preserve" font-family="Helvetica-Light" font-size="30.0" fill="#000000" transform="matrix(1.00, 0.00, -0.00, -1.00, 192.2, 339.0)">0</text><text xml:space="preserve" font-family="Helvetica-Light" font-size="30.0" fill="#000000" transform="matrix(1.00, 0.00, -0.00, -1.00, 208.9, 339.0)">0</text><text xml:space="preserve" font-family="Helvetica-Light" font-size="30.0" fill="#000000" transform="matrix(1.00, 0.00, -0.00, -1.00, 225.5, 339.0)"> </text><text xml:space="preserve" font-family="Helvetica-Light" font-size="30.0" fill="#000000" transform="matrix(1.00, 0.00, -0.00, -1.00, 233.9, 339.0)">u</text><text xml:space="preserve" font-family="Helvetica-Light" font-size="30.0" fill="#000000" transform="matrix(1.00, 0.00, -0.00, -1.00, 250.6, 339.0)">s</text><text xml:space="preserve" font-family="Helvetica-Light" font-size="30.0" fill="#000000" transform="matrix(1.00, 0.00, -0.00, -1.00, 265.6, 339.0)">e</text><text xml:space="preserve" font-family="Helvetica-Light" font-size="30.0" fill="#000000" transform="matrix(1.00, 0.00, -0.00, -1.00, 282.2, 339.0)">r</text><text xml:space="preserve" font-family="Helvetica-Light" font-size="30.0" fill="#000000" transform="matrix(1.00, 0.00, -0.00, -1.00, 292.2, 339.0)">s</text><text xml:space="preserve" font-family="Helvetica-Light" font-size="30.0" fill="#000000" transform="matrix(1.00, 0.00, -0.00, -1.00, 307.2, 339.0)">.</text><text xml:space="preserve" font-family="Helvetica-Light" font-size="30.0" fill="#000000" transform="matrix(1.00, 0.00, -0.00, -1.00, 315.6, 339.0)"> </text><text xml:space="preserve" font-family="Helvetica-Light" font-size="22.5" fill="#000000" transform="matrix(1.00, 0.00, -0.00, -1.00, 87.3, 273.8)">•</text><text xml:space="preserve" font-family="Helvetica-Light" font-size="30.0" fill="#000000" transform="matrix(1.00, 0.00, -0.00, -1.00, 114.0, 271.0)">~</text><text xml:space="preserve" font-family="Helvetica-Light" font-size="30.0" fill="#000000" transform="matrix(1.00, 0.00, -0.00, -1.00, 133.8, 271.0)">8</text><text xml:space="preserve" font-family="Helvetica-Light" font-size="30.0" fill="#000000" transform="matrix(1.00, 0.00, -0.00, -1.00, 150.5, 271.0)">0</text><text xml:space="preserve" font-family="Helvetica-Light" font-size="30.0" fill="#000000" transform="matrix(1.00, 0.00, -0.00, -1.00, 167.2, 271.0)">0</text><text xml:space="preserve" font-family="Helvetica-Light" font-size="30.0" fill="#000000" transform="matrix(1.00, 0.00, -0.00, -1.00, 183.8, 271.0)">,</text><text xml:space="preserve" font-family="Helvetica-Light" font-size="30.0" fill="#000000" transform="matrix(1.00, 0.00, -0.00, -1.00, 192.2, 271.0)">0</text><text xml:space="preserve" font-family="Helvetica-Light" font-size="30.0" fill="#000000" transform="matrix(1.00, 0.00, -0.00, -1.00, 208.9, 271.0)">0</text><text xml:space="preserve" font-family="Helvetica-Light" font-size="30.0" fill="#000000" transform="matrix(1.00, 0.00, -0.00, -1.00, 225.5, 271.0)">0</text><text xml:space="preserve" font-family="Helvetica-Light" font-size="30.0" fill="#000000" transform="matrix(1.00, 0.00, -0.00, -1.00, 242.2, 271.0)"> </text><text xml:space="preserve" font-family="Helvetica-Light" font-size="30.0" fill="#000000" transform="matrix(1.00, 0.00, -0.00, -1.00, 250.6, 271.0)">c</text><text xml:space="preserve" font-family="Helvetica-Light" font-size="30.0" fill="#000000" transform="matrix(1.00, 0.00, -0.00, -1.00, 267.2, 271.0)">o</text><text xml:space="preserve" font-family="Helvetica-Light" font-size="30.0" fill="#000000" transform="matrix(1.00, 0.00, -0.00, -1.00, 283.9, 271.0)">m</text><text xml:space="preserve" font-family="Helvetica-Light" font-size="30.0" fill="#000000" transform="matrix(1.00, 0.00, -0.00, -1.00, 308.9, 271.0)">p</text><text xml:space="preserve" font-family="Helvetica-Light" font-size="30.0" fill="#000000" transform="matrix(1.00, 0.00, -0.00, -1.00, 327.2, 271.0)">l</text><text xml:space="preserve" font-family="Helvetica-Light" font-size="30.0" fill="#000000" transform="matrix(1.00, 0.00, -0.00, -1.00, 333.9, 271.0)">e</text><text xml:space="preserve" font-family="Helvetica-Light" font-size="30.0" fill="#000000" transform="matrix(1.00, 0.00, -0.00, -1.00, 350.6, 271.0)">t</text><text xml:space="preserve" font-family="Helvetica-Light" font-size="30.0" fill="#000000" transform="matrix(1.00, 0.00, -0.00, -1.00, 358.9, 271.0)">e</text><text xml:space="preserve" font-family="Helvetica-Light" font-size="30.0" fill="#000000" transform="matrix(1.00, 0.00, -0.00, -1.00, 375.6, 271.0)">/</text><text xml:space="preserve" font-family="Helvetica-Light" font-size="30.0" fill="#000000" transform="matrix(1.00, 0.00, -0.00, -1.00, 383.9, 271.0)">s</text><text xml:space="preserve" font-family="Helvetica-Light" font-size="30.0" fill="#000000" transform="matrix(1.00, 0.00, -0.00, -1.00, 398.9, 271.0)">k</text><text xml:space="preserve" font-family="Helvetica-Light" font-size="30.0" fill="#000000" transform="matrix(1.00, 0.00, -0.00, -1.00, 413.9, 271.0)">i</text><text xml:space="preserve" font-family="Helvetica-Light" font-size="30.0" fill="#000000" transform="matrix(1.00, 0.00, -0.00, -1.00, 420.6, 271.0)">p</text><text xml:space="preserve" font-family="Helvetica-Light" font-size="30.0" fill="#000000" transform="matrix(1.00, 0.00, -0.00, -1.00, 438.9, 271.0)"> </text><text xml:space="preserve" font-family="Helvetica-Light" font-size="30.0" fill="#000000" transform="matrix(1.00, 0.00, -0.00, -1.00, 447.3, 271.0)">e</text><text xml:space="preserve" font-family="Helvetica-Light" font-size="30.0" fill="#000000" transform="matrix(1.00, 0.00, -0.00, -1.00, 464.0, 271.0)">v</text><text xml:space="preserve" font-family="Helvetica-Light" font-size="30.0" fill="#000000" transform="matrix(1.00, 0.00, -0.00, -1.00, 479.0, 271.0)">e</text><text xml:space="preserve" font-family="Helvetica-Light" font-size="30.0" fill="#000000" transform="matrix(1.00, 0.00, -0.00, -1.00, 495.6, 271.0)">n</text><text xml:space="preserve" font-family="Helvetica-Light" font-size="30.0" fill="#000000" transform="matrix(1.00, 0.00, -0.00, -1.00, 512.3, 271.0)">t</text><text xml:space="preserve" font-family="Helvetica-Light" font-size="30.0" fill="#000000" transform="matrix(1.00, 0.00, -0.00, -1.00, 520.7, 271.0)">s</text><text xml:space="preserve" font-family="Helvetica-Light" font-size="30.0" fill="#000000" transform="matrix(1.00, 0.00, -0.00, -1.00, 535.7, 271.0)">.</text><text xml:space="preserve" font-family="Helvetica-Light" font-size="30.0" fill="#000000" transform="matrix(1.00, 0.00, -0.00, -1.00, 544.0, 271.0)"> </text><text xml:space="preserve" font-family="Helvetica" font-size="37.5" fill="#000000" transform="matrix(1.00, 0.00, -0.00, -1.00, 87.3, 199.3)">•</text><text xml:space="preserve" font-family="Helvetica" font-size="30.0" fill="#000000" transform="matrix(1.00, 0.00, -0.00, -1.00, 114.0, 203.0)">O</text><text xml:space="preserve" font-family="Helvetica" font-size="30.0" fill="#000000" transform="matrix(1.00, 0.00, -0.00, -1.00, 137.3, 203.0)">n</text><text xml:space="preserve" font-family="Helvetica" font-size="30.0" fill="#000000" transform="matrix(1.00, 0.00, -0.00, -1.00, 154.0, 203.0)">l</text><text xml:space="preserve" font-family="Helvetica" font-size="30.0" fill="#000000" transform="matrix(1.00, 0.00, -0.00, -1.00, 160.7, 203.0)">y</text><text xml:space="preserve" font-family="Helvetica" font-size="30.0" fill="#000000" transform="matrix(1.00, 0.00, -0.00, -1.00, 175.7, 203.0)"> </text><text xml:space="preserve" font-family="Helvetica" font-size="30.0" fill="#000000" transform="matrix(1.00, 0.00, -0.00, -1.00, 184.0, 203.0)">7</text><text xml:space="preserve" font-family="Helvetica" font-size="30.0" fill="#000000" transform="matrix(1.00, 0.00, -0.00, -1.00, 200.7, 203.0)">%</text><text xml:space="preserve" font-family="Helvetica" font-size="30.0" fill="#000000" transform="matrix(1.00, 0.00, -0.00, -1.00, 227.4, 203.0)"> </text><text xml:space="preserve" font-family="Helvetica" font-size="30.0" fill="#000000" transform="matrix(1.00, 0.00, -0.00, -1.00, 235.7, 203.0)">w</text><text xml:space="preserve" font-family="Helvetica" font-size="30.0" fill="#000000" transform="matrix(1.00, 0.00, -0.00, -1.00, 257.4, 203.0)">e</text><text xml:space="preserve" font-family="Helvetica" font-size="30.0" fill="#000000" transform="matrix(1.00, 0.00, -0.00, -1.00, 274.1, 203.0)">r</text><text xml:space="preserve" font-family="Helvetica" font-size="30.0" fill="#000000" transform="matrix(1.00, 0.00, -0.00, -1.00, 284.1, 203.0)">e</text><text xml:space="preserve" font-family="Helvetica" font-size="30.0" fill="#000000" transform="matrix(1.00, 0.00, -0.00, -1.00, 300.8, 203.0)"> </text><text xml:space="preserve" font-family="Helvetica" font-size="30.0" fill="#000000" transform="matrix(1.00, 0.00, -0.00, -1.00, 309.1, 203.0)">s</text><text xml:space="preserve" font-family="Helvetica" font-size="30.0" fill="#000000" transform="matrix(1.00, 0.00, -0.00, -1.00, 324.1, 203.0)">k</text><text xml:space="preserve" font-family="Helvetica" font-size="30.0" fill="#000000" transform="matrix(1.00, 0.00, -0.00, -1.00, 339.1, 203.0)">i</text><text xml:space="preserve" font-family="Helvetica" font-size="30.0" fill="#000000" transform="matrix(1.00, 0.00, -0.00, -1.00, 345.8, 203.0)">p</text><text xml:space="preserve" font-family="Helvetica" font-size="30.0" fill="#000000" transform="matrix(1.00, 0.00, -0.00, -1.00, 362.5, 203.0)"> </text><text xml:space="preserve" font-family="Helvetica" font-size="30.0" fill="#000000" transform="matrix(1.00, 0.00, -0.00, -1.00, 370.8, 203.0)">e</text><text xml:space="preserve" font-family="Helvetica" font-size="30.0" fill="#000000" transform="matrix(1.00, 0.00, -0.00, -1.00, 387.5, 203.0)">v</text><text xml:space="preserve" font-family="Helvetica" font-size="30.0" fill="#000000" transform="matrix(1.00, 0.00, -0.00, -1.00, 402.5, 203.0)">e</text><text xml:space="preserve" font-family="Helvetica" font-size="30.0" fill="#000000" transform="matrix(1.00, 0.00, -0.00, -1.00, 419.2, 203.0)">n</text><text xml:space="preserve" font-family="Helvetica" font-size="30.0" fill="#000000" transform="matrix(1.00, 0.00, -0.00, -1.00, 435.9, 203.0)">t</text><text xml:space="preserve" font-family="Helvetica" font-size="30.0" fill="#000000" transform="matrix(1.00, 0.00, -0.00, -1.00, 444.2, 203.0)">s</text><image xlink:href="../../5BA23000-6F2D-4574-9D2F-430C3F2B5B97/assets/95489D0BE761EB68EABB3C1249B8E366.png" width="330.00" height="792.00" transform="matrix(1.00, 0.00, -0.00, -1.00, 670.9, 710.4)"></image><image xlink:href="../../5BA23000-6F2D-4574-9D2F-430C3F2B5B97/assets/8DF38348E2C930EC773CA979FECC841A.png" width="250.00" height="445.00" transform="matrix(1.00, 0.00, -0.00, -1.00, 711.0, 538.0)"></image><text xml:space="preserve" font-family="Helvetica-Light" font-size="36.0" fill="#000000" transform="matrix(1.00, 0.00, -0.00, -1.00, 275.0, 550.0)">L</text><text xml:space="preserve" font-family="Helvetica-Light" font-size="36.0" fill="#000000" transform="matrix(1.00, 0.00, -0.00, -1.00, 295.0, 550.0)">a</text><text xml:space="preserve" font-family="Helvetica-Light" font-size="36.0" fill="#000000" transform="matrix(1.00, 0.00, -0.00, -1.00, 315.0, 550.0)">r</text><text xml:space="preserve" font-family="Helvetica-Light" font-size="36.0" fill="#000000" transform="matrix(1.00, 0.00, -0.00, -1.00, 327.0, 550.0)">g</text><text xml:space="preserve" font-family="Helvetica-Light" font-size="36.0" fill="#000000" transform="matrix(1.00, 0.00, -0.00, -1.00, 349.0, 550.0)">e</text><text xml:space="preserve" font-family="Helvetica-Light" font-size="36.0" fill="#000000" transform="matrix(1.00, 0.00, -0.00, -1.00, 369.0, 550.0)"> </text><text xml:space="preserve" font-family="Helvetica-Light" font-size="36.0" fill="#000000" transform="matrix(1.00, 0.00, -0.00, -1.00, 379.0, 550.0)">A</text><text xml:space="preserve" font-family="Helvetica-Light" font-size="36.0" fill="#000000" transform="matrix(1.00, 0.00, -0.00, -1.00, 403.1, 550.0)">m</text><text xml:space="preserve" font-family="Helvetica-Light" font-size="36.0" fill="#000000" transform="matrix(1.00, 0.00, -0.00, -1.00, 433.0, 550.0)">o</text><text xml:space="preserve" font-family="Helvetica-Light" font-size="36.0" fill="#000000" transform="matrix(1.00, 0.00, -0.00, -1.00, 453.1, 550.0)">u</text><text xml:space="preserve" font-family="Helvetica-Light" font-size="36.0" fill="#000000" transform="matrix(1.00, 0.00, -0.00, -1.00, 473.1, 550.0)">n</text><text xml:space="preserve" font-family="Helvetica-Light" font-size="36.0" fill="#000000" transform="matrix(1.00, 0.00, -0.00, -1.00, 493.1, 550.0)">t</text><text xml:space="preserve" font-family="Helvetica-Light" font-size="36.0" fill="#000000" transform="matrix(1.00, 0.00, -0.00, -1.00, 503.1, 550.0)"> </text><text xml:space="preserve" font-family="Helvetica-Light" font-size="36.0" fill="#000000" transform="matrix(1.00, 0.00, -0.00, -1.00, 513.1, 550.0)">o</text><text xml:space="preserve" font-family="Helvetica-Light" font-size="36.0" fill="#000000" transform="matrix(1.00, 0.00, -0.00, -1.00, 533.1, 550.0)">f</text><text xml:space="preserve" font-family="Helvetica-Light" font-size="36.0" fill="#000000" transform="matrix(1.00, 0.00, -0.00, -1.00, 543.1, 550.0)"> </text><text xml:space="preserve" font-family="Helvetica" font-size="36.0" fill="#000000" transform="matrix(1.00, 0.00, -0.00, -1.00, 553.1, 550.0)">B</text><text xml:space="preserve" font-family="Helvetica" font-size="36.0" fill="#000000" transform="matrix(1.00, 0.00, -0.00, -1.00, 577.1, 550.0)">i</text><text xml:space="preserve" font-family="Helvetica" font-size="36.0" fill="#000000" transform="matrix(1.00, 0.00, -0.00, -1.00, 585.2, 550.0)">a</text><text xml:space="preserve" font-family="Helvetica" font-size="36.0" fill="#000000" transform="matrix(1.00, 0.00, -0.00, -1.00, 605.2, 550.0)">s</text><text xml:space="preserve" font-family="Helvetica" font-size="36.0" fill="#000000" transform="matrix(1.00, 0.00, -0.00, -1.00, 623.2, 550.0)">e</text><text xml:space="preserve" font-family="Helvetica" font-size="36.0" fill="#000000" transform="matrix(1.00, 0.00, -0.00, -1.00, 643.2, 550.0)">d</text><text xml:space="preserve" font-family="Helvetica-Light" font-size="36.0" fill="#000000" transform="matrix(1.00, 0.00, -0.00, -1.00, 663.2, 550.0)"> </text><text xml:space="preserve" font-family="Helvetica-Light" font-size="36.0" fill="#000000" transform="matrix(1.00, 0.00, -0.00, -1.00, 673.2, 550.0)">D</text><text xml:space="preserve" font-family="Helvetica-Light" font-size="36.0" fill="#000000" transform="matrix(1.00, 0.00, -0.00, -1.00, 699.2, 550.0)">a</text><text xml:space="preserve" font-family="Helvetica-Light" font-size="36.0" fill="#000000" transform="matrix(1.00, 0.00, -0.00, -1.00, 719.2, 550.0)">t</text><text xml:space="preserve" font-family="Helvetica-Light" font-size="36.0" fill="#000000" transform="matrix(1.00, 0.00, -0.00, -1.00, 729.2, 550.0)">a</text><image xlink:href="../../C754BE96-E398-4FF1-B069-1541D8C7CE0E/assets/904AEAD2E2A96E270807362AE58A8F16.png" width="86.00" height="86.00" transform="matrix(1.00, 0.00, -0.00, -1.00, 719.9, 183.7)" opacity="0.50"></image><path d="M 59.7 10.3 C 73.4 23.9 73.4 46.1 59.7 59.7 C 46.1 73.4 23.9 73.4 10.3 59.7 C -3.4 46.1 -3.4 23.9 10.3 10.3 C 23.9 -3.4 46.1 -3.4 59.7 10.3 Z M 59.7 10.3 " fill="none" stroke="#FF9200" stroke-width="10.00" transform="matrix(1.00, 0.00, 0.00, -1.00, 727.9, 177.7)"></path><path d="M 0.0 0.0 L 377.8 0.0 " fill="none" stroke="#FF9200" stroke-width="6.00" transform="matrix(1.00, 0.00, 0.00, -1.00, 364.5, 110.8)"></path><text xml:space="preserve" font-family="Helvetica-Bold" font-weight="bold" font-size="36.0" fill="#FF9200" transform="matrix(1.00, 0.00, -0.00, -1.00, 366.0, 123.0)">M</text><text xml:space="preserve" font-family="Helvetica-Bold" font-weight="bold" font-size="36.0" fill="#FF9200" transform="matrix(1.00, 0.00, -0.00, -1.00, 396.0, 123.0)">a</text><text xml:space="preserve" font-family="Helvetica-Bold" font-weight="bold" font-size="36.0" fill="#FF9200" transform="matrix(1.00, 0.00, -0.00, -1.00, 416.0, 123.0)">r</text><text xml:space="preserve" font-family="Helvetica-Bold" font-weight="bold" font-size="36.0" fill="#FF9200" transform="matrix(1.00, 0.00, -0.00, -1.00, 430.0, 123.0)">k</text><text xml:space="preserve" font-family="Helvetica-Bold" font-weight="bold" font-size="36.0" fill="#FF9200" transform="matrix(1.00, 0.00, -0.00, -1.00, 450.1, 123.0)"> </text><text xml:space="preserve" font-family="Helvetica-Bold" font-weight="bold" font-size="36.0" fill="#FF9200" transform="matrix(1.00, 0.00, -0.00, -1.00, 460.1, 123.0)">s</text><text xml:space="preserve" font-family="Helvetica-Bold" font-weight="bold" font-size="36.0" fill="#FF9200" transform="matrix(1.00, 0.00, -0.00, -1.00, 480.1, 123.0)">k</text><text xml:space="preserve" font-family="Helvetica-Bold" font-weight="bold" font-size="36.0" fill="#FF9200" transform="matrix(1.00, 0.00, -0.00, -1.00, 500.1, 123.0)">i</text><text xml:space="preserve" font-family="Helvetica-Bold" font-weight="bold" font-size="36.0" fill="#FF9200" transform="matrix(1.00, 0.00, -0.00, -1.00, 510.1, 123.0)">p</text><text xml:space="preserve" font-family="Helvetica-Bold" font-weight="bold" font-size="36.0" fill="#FF9200" transform="matrix(1.00, 0.00, -0.00, -1.00, 532.1, 123.0)">p</text><text xml:space="preserve" font-family="Helvetica-Bold" font-weight="bold" font-size="36.0" fill="#FF9200" transform="matrix(1.00, 0.00, -0.00, -1.00, 554.1, 123.0)">e</text><text xml:space="preserve" font-family="Helvetica-Bold" font-weight="bold" font-size="36.0" fill="#FF9200" transform="matrix(1.00, 0.00, -0.00, -1.00, 574.1, 123.0)">d</text><text xml:space="preserve" font-family="Helvetica-Bold" font-weight="bold" font-size="36.0" fill="#FF9200" transform="matrix(1.00, 0.00, -0.00, -1.00, 596.1, 123.0)"> </text><text xml:space="preserve" font-family="Helvetica-Bold" font-weight="bold" font-size="36.0" fill="#FF9200" transform="matrix(1.00, 0.00, -0.00, -1.00, 606.1, 123.0)">h</text><text xml:space="preserve" font-family="Helvetica-Bold" font-weight="bold" font-size="36.0" fill="#FF9200" transform="matrix(1.00, 0.00, -0.00, -1.00, 628.1, 123.0)">a</text><text xml:space="preserve" font-family="Helvetica-Bold" font-weight="bold" font-size="36.0" fill="#FF9200" transform="matrix(1.00, 0.00, -0.00, -1.00, 648.1, 123.0)">b</text><text xml:space="preserve" font-family="Helvetica-Bold" font-weight="bold" font-size="36.0" fill="#FF9200" transform="matrix(1.00, 0.00, -0.00, -1.00, 670.1, 123.0)">i</text><text xml:space="preserve" font-family="Helvetica-Bold" font-weight="bold" font-size="36.0" fill="#FF9200" transform="matrix(1.00, 0.00, -0.00, -1.00, 680.1, 123.0)">t</text></g></svg>