<?xml version="1.0" encoding="UTF-8" standalone="no"?><svg xmlns="http://www.w3.org/2000/svg" xmlns:xlink="http://www.w3.org/1999/xlink" clip-rule="evenodd" stroke-miterlimit="4.00" viewBox="0 0 1024 768"><desc>SVG generated by Keynote</desc><defs></defs><g transform="matrix(1.00, 0.00, -0.00, -1.00, 0.0, 768.0)"><path d="M 0.0 768.0 L 1024.0 768.0 L 1024.0 0.0 L 0.0 0.0 Z M 0.0 768.0 " fill="#FEFFFF"></path><image xlink:href="00A35F214E1260EF299263B866C6080A.png" width="1114.00" height="150.00" transform="matrix(1.00, 0.00, -0.00, -1.00, -45.0, 678.1)" opacity="0.75"></image><text xml:space="preserve" font-family="Helvetica" font-size="48.0" fill="#000000" transform="matrix(1.00, 0.00, -0.00, -1.00, 155.0, 630.0)">R</text><text xml:space="preserve" font-family="Helvetica" font-size="48.0" fill="#000000" transform="matrix(1.00, 0.00, -0.00, -1.00, 189.7, 630.0)">O</text><text xml:space="preserve" font-family="Helvetica" font-size="48.0" fill="#000000" transform="matrix(1.00, 0.00, -0.00, -1.00, 227.0, 630.0)">C</text><text xml:space="preserve" font-family="Helvetica" font-size="48.0" fill="#000000" transform="matrix(1.00, 0.00, -0.00, -1.00, 261.7, 630.0)"> </text><text xml:space="preserve" font-family="Helvetica" font-size="48.0" fill="#000000" transform="matrix(1.00, 0.00, -0.00, -1.00, 275.0, 630.0)">C</text><text xml:space="preserve" font-family="Helvetica" font-size="48.0" fill="#000000" transform="matrix(1.00, 0.00, -0.00, -1.00, 309.7, 630.0)">u</text><text xml:space="preserve" font-family="Helvetica" font-size="48.0" fill="#000000" transform="matrix(1.00, 0.00, -0.00, -1.00, 336.4, 630.0)">r</text><text xml:space="preserve" font-family="Helvetica" font-size="48.0" fill="#000000" transform="matrix(1.00, 0.00, -0.00, -1.00, 352.4, 630.0)">v</text><text xml:space="preserve" font-family="Helvetica" font-size="48.0" fill="#000000" transform="matrix(1.00, 0.00, -0.00, -1.00, 376.4, 630.0)">e</text><text xml:space="preserve" font-family="Helvetica" font-size="48.0" fill="#000000" transform="matrix(1.00, 0.00, -0.00, -1.00, 403.1, 630.0)"> </text><text xml:space="preserve" font-family="Helvetica" font-size="48.0" fill="#000000" transform="matrix(1.00, 0.00, -0.00, -1.00, 416.4, 630.0)">a</text><text xml:space="preserve" font-family="Helvetica" font-size="48.0" fill="#000000" transform="matrix(1.00, 0.00, -0.00, -1.00, 443.1, 630.0)">n</text><text xml:space="preserve" font-family="Helvetica" font-size="48.0" fill="#000000" transform="matrix(1.00, 0.00, -0.00, -1.00, 469.8, 630.0)">d</text><text xml:space="preserve" font-family="Helvetica" font-size="48.0" fill="#000000" transform="matrix(1.00, 0.00, -0.00, -1.00, 496.5, 630.0)"> </text><text xml:space="preserve" font-family="Helvetica" font-size="48.0" fill="#000000" transform="matrix(1.00, 0.00, -0.00, -1.00, 509.8, 630.0)">C</text><text xml:space="preserve" font-family="Helvetica" font-size="48.0" fill="#000000" transform="matrix(1.00, 0.00, -0.00, -1.00, 544.5, 630.0)">o</text><text xml:space="preserve" font-family="Helvetica" font-size="48.0" fill="#000000" transform="matrix(1.00, 0.00, -0.00, -1.00, 571.2, 630.0)">n</text><text xml:space="preserve" font-family="Helvetica" font-size="48.0" fill="#000000" transform="matrix(1.00, 0.00, -0.00, -1.00, 597.9, 630.0)">f</text><text xml:space="preserve" font-family="Helvetica" font-size="48.0" fill="#000000" transform="matrix(1.00, 0.00, -0.00, -1.00, 611.2, 630.0)">u</text><text xml:space="preserve" font-family="Helvetica" font-size="48.0" fill="#000000" transform="matrix(1.00, 0.00, -0.00, -1.00, 638.0, 630.0)">s</text><text xml:space="preserve" font-family="Helvetica" font-size="48.0" fill="#000000" transform="matrix(1.00, 0.00, -0.00, -1.00, 662.0, 630.0)">i</text><text xml:space="preserve" font-family="Helvetica" font-size="48.0" fill="#000000" transform="matrix(1.00, 0.00, -0.00, -1.00, 672.6, 630.0)">o</text><text xml:space="preserve" font-family="Helvetica" font-size="48.0" fill="#000000" transform="matrix(1.00, 0.00, -0.00, -1.00, 699.3, 630.0)">n</text><text xml:space="preserve" font-family="Helvetica" font-size="48.0" fill="#000000" transform="matrix(1.00, 0.00, -0.00, -1.00, 726.0, 630.0)"> </text><text xml:space="preserve" font-family="Helvetica" font-size="48.0" fill="#000000" transform="matrix(1.00, 0.00, -0.00, -1.00, 739.4, 630.0)">M</text><text xml:space="preserve" font-family="Helvetica" font-size="48.0" fill="#000000" transform="matrix(1.00, 0.00, -0.00, -1.00, 779.3, 630.0)">a</text><text xml:space="preserve" font-family="Helvetica" font-size="48.0" fill="#000000" transform="matrix(1.00, 0.00, -0.00, -1.00, 806.0, 630.0)">t</text><text xml:space="preserve" font-family="Helvetica" font-size="48.0" fill="#000000" transform="matrix(1.00, 0.00, -0.00, -1.00, 819.4, 630.0)">r</text><text xml:space="preserve" font-family="Helvetica" font-size="48.0" fill="#000000" transform="matrix(1.00, 0.00, -0.00, -1.00, 835.4, 630.0)">i</text><text xml:space="preserve" font-family="Helvetica" font-size="48.0" fill="#000000" transform="matrix(1.00, 0.00, -0.00, -1.00, 846.0, 630.0)">x</text><image xlink:href="A9AEDADAFCDB93C68D05F5B046BB0A28.png" width="530.00" height="547.00" transform="matrix(1.00, 0.00, -0.00, -1.00, 54.3, 631.4)"></image><image xlink:href="A0EC4ED29EE2D22146532F04DDD38204.png" width="450.00" height="291.00" transform="matrix(1.00, 0.00, -0.00, -1.00, 94.0, 505.0)"></image><g><clipPath id="clip-123"><path d="M 597.0 485.0 L 925.2 485.0 L 925.2 252.5 L 597.0 252.5 Z M 597.0 485.0 "></path></clipPath><g clip-path="url(#clip-123)"><g><clipPath id="clip-124"><path d="M 708.1 408.0 L 815.9 408.0 L 815.9 485.0 L 708.1 485.0 Z M 708.1 408.0 "></path></clipPath><g clip-path="url(#clip-124)"><text xml:space="preserve" font-family="Helvetica-Bold" font-weight="bold" font-size="20.0" fill="#000000" transform="matrix(1.00, 0.00, -0.00, -1.00, 714.0, 439.0)">p</text><text xml:space="preserve" font-family="Helvetica-Bold" font-weight="bold" font-size="20.0" fill="#000000" transform="matrix(1.00, 0.00, -0.00, -1.00, 726.2, 439.0)">r</text><text xml:space="preserve" font-family="Helvetica-Bold" font-weight="bold" font-size="20.0" fill="#000000" transform="matrix(1.00, 0.00, -0.00, -1.00, 734.0, 439.0)">e</text><text xml:space="preserve" font-family="Helvetica-Bold" font-weight="bold" font-size="20.0" fill="#000000" transform="matrix(1.00, 0.00, -0.00, -1.00, 745.1, 439.0)">d</text><text xml:space="preserve" font-family="Helvetica-Bold" font-weight="bold" font-size="20.0" fill="#000000" transform="matrix(1.00, 0.00, -0.00, -1.00, 757.3, 439.0)">.</text><text xml:space="preserve" font-family="Helvetica-Bold" font-weight="bold" font-size="20.0" fill="#000000" transform="matrix(1.00, 0.00, -0.00, -1.00, 762.9, 439.0)"> </text><text xml:space="preserve" font-family="Helvetica-Bold" font-weight="bold" font-size="20.0" fill="#000000" transform="matrix(1.00, 0.00, -0.00, -1.00, 768.4, 439.0)">c</text><text xml:space="preserve" font-family="Helvetica-Bold" font-weight="bold" font-size="20.0" fill="#000000" transform="matrix(1.00, 0.00, -0.00, -1.00, 779.5, 439.0)">m</text><text xml:space="preserve" font-family="Helvetica-Bold" font-weight="bold" font-size="20.0" fill="#000000" transform="matrix(1.00, 0.00, -0.00, -1.00, 797.3, 439.0)">p</text></g></g></g></g><g><clipPath id="clip-125"><path d="M 597.0 485.0 L 925.2 485.0 L 925.2 252.5 L 597.0 252.5 Z M 597.0 485.0 "></path></clipPath><g clip-path="url(#clip-125)"><g><clipPath id="clip-126"><path d="M 816.9 408.0 L 925.2 408.0 L 925.2 485.0 L 816.9 485.0 Z M 816.9 408.0 "></path></clipPath><g clip-path="url(#clip-126)"><text xml:space="preserve" font-family="Helvetica-Bold" font-weight="bold" font-size="20.0" fill="#000000" transform="matrix(1.00, 0.00, -0.00, -1.00, 827.0, 439.0)">p</text><text xml:space="preserve" font-family="Helvetica-Bold" font-weight="bold" font-size="20.0" fill="#000000" transform="matrix(1.00, 0.00, -0.00, -1.00, 839.2, 439.0)">r</text><text xml:space="preserve" font-family="Helvetica-Bold" font-weight="bold" font-size="20.0" fill="#000000" transform="matrix(1.00, 0.00, -0.00, -1.00, 847.0, 439.0)">e</text><text xml:space="preserve" font-family="Helvetica-Bold" font-weight="bold" font-size="20.0" fill="#000000" transform="matrix(1.00, 0.00, -0.00, -1.00, 858.1, 439.0)">d</text><text xml:space="preserve" font-family="Helvetica-Bold" font-weight="bold" font-size="20.0" fill="#000000" transform="matrix(1.00, 0.00, -0.00, -1.00, 870.3, 439.0)">.</text><text xml:space="preserve" font-family="Helvetica-Bold" font-weight="bold" font-size="20.0" fill="#000000" transform="matrix(1.00, 0.00, -0.00, -1.00, 875.9, 439.0)"> </text><text xml:space="preserve" font-family="Helvetica-Bold" font-weight="bold" font-size="20.0" fill="#000000" transform="matrix(1.00, 0.00, -0.00, -1.00, 881.4, 439.0)">s</text><text xml:space="preserve" font-family="Helvetica-Bold" font-weight="bold" font-size="20.0" fill="#000000" transform="matrix(1.00, 0.00, -0.00, -1.00, 892.5, 439.0)">k</text><text xml:space="preserve" font-family="Helvetica-Bold" font-weight="bold" font-size="20.0" fill="#000000" transform="matrix(1.00, 0.00, -0.00, -1.00, 903.7, 439.0)">p</text></g></g></g></g><g><clipPath id="clip-127"><path d="M 597.0 485.0 L 925.2 485.0 L 925.2 252.5 L 597.0 252.5 Z M 597.0 485.0 "></path></clipPath><g clip-path="url(#clip-127)"><g><clipPath id="clip-128"><path d="M 597.0 330.5 L 707.1 330.5 L 707.1 407.0 L 597.0 407.0 Z M 597.0 330.5 "></path></clipPath><g clip-path="url(#clip-128)"><text xml:space="preserve" font-family="Helvetica-Bold" font-weight="bold" font-size="20.0" fill="#000000" transform="matrix(1.00, 0.00, -0.00, -1.00, 602.0, 362.0)">c</text><text xml:space="preserve" font-family="Helvetica-Bold" font-weight="bold" font-size="20.0" fill="#000000" transform="matrix(1.00, 0.00, -0.00, -1.00, 613.1, 362.0)">o</text><text xml:space="preserve" font-family="Helvetica-Bold" font-weight="bold" font-size="20.0" fill="#000000" transform="matrix(1.00, 0.00, -0.00, -1.00, 625.3, 362.0)">m</text><text xml:space="preserve" font-family="Helvetica-Bold" font-weight="bold" font-size="20.0" fill="#000000" transform="matrix(1.00, 0.00, -0.00, -1.00, 643.1, 362.0)">p</text><text xml:space="preserve" font-family="Helvetica-Bold" font-weight="bold" font-size="20.0" fill="#000000" transform="matrix(1.00, 0.00, -0.00, -1.00, 655.3, 362.0)">l</text><text xml:space="preserve" font-family="Helvetica-Bold" font-weight="bold" font-size="20.0" fill="#000000" transform="matrix(1.00, 0.00, -0.00, -1.00, 660.9, 362.0)">e</text><text xml:space="preserve" font-family="Helvetica-Bold" font-weight="bold" font-size="20.0" fill="#000000" transform="matrix(1.00, 0.00, -0.00, -1.00, 672.0, 362.0)">t</text><text xml:space="preserve" font-family="Helvetica-Bold" font-weight="bold" font-size="20.0" fill="#000000" transform="matrix(1.00, 0.00, -0.00, -1.00, 678.7, 362.0)">e</text><text xml:space="preserve" font-family="Helvetica-Bold" font-weight="bold" font-size="20.0" fill="#000000" transform="matrix(1.00, 0.00, -0.00, -1.00, 689.8, 362.0)">d</text></g></g></g></g><g><clipPath id="clip-129"><path d="M 597.0 485.0 L 925.2 485.0 L 925.2 252.5 L 597.0 252.5 Z M 597.0 485.0 "></path></clipPath><g clip-path="url(#clip-129)"><g><clipPath id="clip-130"><path d="M 708.1 330.5 L 815.9 330.5 L 815.9 407.0 L 708.1 407.0 Z M 708.1 330.5 "></path></clipPath><g clip-path="url(#clip-130)"><text xml:space="preserve" font-family="Helvetica-Light" font-size="24.0" fill="#000000" transform="matrix(1.00, 0.00, -0.00, -1.00, 719.0, 360.0)">1</text><text xml:space="preserve" font-family="Helvetica-Light" font-size="24.0" fill="#000000" transform="matrix(1.00, 0.00, -0.00, -1.00, 732.3, 360.0)">6</text><text xml:space="preserve" font-family="Helvetica-Light" font-size="24.0" fill="#000000" transform="matrix(1.00, 0.00, -0.00, -1.00, 745.7, 360.0)">0</text><text xml:space="preserve" font-family="Helvetica-Light" font-size="24.0" fill="#000000" transform="matrix(1.00, 0.00, -0.00, -1.00, 759.0, 360.0)">,</text><text xml:space="preserve" font-family="Helvetica-Light" font-size="24.0" fill="#000000" transform="matrix(1.00, 0.00, -0.00, -1.00, 765.7, 360.0)">6</text><text xml:space="preserve" font-family="Helvetica-Light" font-size="24.0" fill="#000000" transform="matrix(1.00, 0.00, -0.00, -1.00, 779.0, 360.0)">5</text><text xml:space="preserve" font-family="Helvetica-Light" font-size="24.0" fill="#000000" transform="matrix(1.00, 0.00, -0.00, -1.00, 792.4, 360.0)">3</text></g></g></g></g><g><clipPath id="clip-131"><path d="M 597.0 485.0 L 925.2 485.0 L 925.2 252.5 L 597.0 252.5 Z M 597.0 485.0 "></path></clipPath><g clip-path="url(#clip-131)"><g><clipPath id="clip-132"><path d="M 816.9 330.5 L 925.2 330.5 L 925.2 407.0 L 816.9 407.0 Z M 816.9 330.5 "></path></clipPath><g clip-path="url(#clip-132)"><text xml:space="preserve" font-family="Helvetica-Light" font-size="24.0" fill="#000000" transform="matrix(1.00, 0.00, -0.00, -1.00, 834.0, 360.0)">7</text><text xml:space="preserve" font-family="Helvetica-Light" font-size="24.0" fill="#000000" transform="matrix(1.00, 0.00, -0.00, -1.00, 847.3, 360.0)">8</text><text xml:space="preserve" font-family="Helvetica-Light" font-size="24.0" fill="#000000" transform="matrix(1.00, 0.00, -0.00, -1.00, 860.7, 360.0)">,</text><text xml:space="preserve" font-family="Helvetica-Light" font-size="24.0" fill="#000000" transform="matrix(1.00, 0.00, -0.00, -1.00, 867.4, 360.0)">8</text><text xml:space="preserve" font-family="Helvetica-Light" font-size="24.0" fill="#000000" transform="matrix(1.00, 0.00, -0.00, -1.00, 880.7, 360.0)">8</text><text xml:space="preserve" font-family="Helvetica-Light" font-size="24.0" fill="#000000" transform="matrix(1.00, 0.00, -0.00, -1.00, 894.0, 360.0)">3</text></g></g></g></g><g><clipPath id="clip-133"><path d="M 597.0 485.0 L 925.2 485.0 L 925.2 252.5 L 597.0 252.5 Z M 597.0 485.0 "></path></clipPath><g clip-path="url(#clip-133)"><g><clipPath id="clip-134"><path d="M 597.0 252.5 L 707.1 252.5 L 707.1 329.5 L 597.0 329.5 Z M 597.0 252.5 "></path></clipPath><g clip-path="url(#clip-134)"><text xml:space="preserve" font-family="Helvetica-Bold" font-weight="bold" font-size="20.0" fill="#000000" transform="matrix(1.00, 0.00, -0.00, -1.00, 614.0, 283.0)">s</text><text xml:space="preserve" font-family="Helvetica-Bold" font-weight="bold" font-size="20.0" fill="#000000" transform="matrix(1.00, 0.00, -0.00, -1.00, 625.1, 283.0)">k</text><text xml:space="preserve" font-family="Helvetica-Bold" font-weight="bold" font-size="20.0" fill="#000000" transform="matrix(1.00, 0.00, -0.00, -1.00, 636.3, 283.0)">i</text><text xml:space="preserve" font-family="Helvetica-Bold" font-weight="bold" font-size="20.0" fill="#000000" transform="matrix(1.00, 0.00, -0.00, -1.00, 641.8, 283.0)">p</text><text xml:space="preserve" font-family="Helvetica-Bold" font-weight="bold" font-size="20.0" fill="#000000" transform="matrix(1.00, 0.00, -0.00, -1.00, 654.0, 283.0)">p</text><text xml:space="preserve" font-family="Helvetica-Bold" font-weight="bold" font-size="20.0" fill="#000000" transform="matrix(1.00, 0.00, -0.00, -1.00, 666.3, 283.0)">e</text><text xml:space="preserve" font-family="Helvetica-Bold" font-weight="bold" font-size="20.0" fill="#000000" transform="matrix(1.00, 0.00, -0.00, -1.00, 677.4, 283.0)">d</text></g></g></g></g><g><clipPath id="clip-135"><path d="M 597.0 485.0 L 925.2 485.0 L 925.2 252.5 L 597.0 252.5 Z M 597.0 485.0 "></path></clipPath><g clip-path="url(#clip-135)"><g><clipPath id="clip-136"><path d="M 708.1 252.5 L 815.9 252.5 L 815.9 329.5 L 708.1 329.5 Z M 708.1 252.5 "></path></clipPath><g clip-path="url(#clip-136)"><text xml:space="preserve" font-family="Helvetica-Light" font-size="24.0" fill="#000000" transform="matrix(1.00, 0.00, -0.00, -1.00, 732.0, 282.0)">7</text><text xml:space="preserve" font-family="Helvetica-Light" font-size="24.0" fill="#000000" transform="matrix(1.00, 0.00, -0.00, -1.00, 745.3, 282.0)">,</text><text xml:space="preserve" font-family="Helvetica-Light" font-size="24.0" fill="#000000" transform="matrix(1.00, 0.00, -0.00, -1.00, 752.0, 282.0)">7</text><text xml:space="preserve" font-family="Helvetica-Light" font-size="24.0" fill="#000000" transform="matrix(1.00, 0.00, -0.00, -1.00, 765.4, 282.0)">0</text><text xml:space="preserve" font-family="Helvetica-Light" font-size="24.0" fill="#000000" transform="matrix(1.00, 0.00, -0.00, -1.00, 778.7, 282.0)">7</text></g></g></g></g><g><clipPath id="clip-137"><path d="M 597.0 485.0 L 925.2 485.0 L 925.2 252.5 L 597.0 252.5 Z M 597.0 485.0 "></path></clipPath><g clip-path="url(#clip-137)"><g><clipPath id="clip-138"><path d="M 816.9 252.5 L 925.2 252.5 L 925.2 329.5 L 816.9 329.5 Z M 816.9 252.5 "></path></clipPath><g clip-path="url(#clip-138)"><text xml:space="preserve" font-family="Helvetica-Light" font-size="24.0" fill="#000000" transform="matrix(1.00, 0.00, -0.00, -1.00, 834.0, 282.0)">1</text><text xml:space="preserve" font-family="Helvetica-Light" font-size="24.0" fill="#000000" transform="matrix(1.00, 0.00, -0.00, -1.00, 847.3, 282.0)">0</text><text xml:space="preserve" font-family="Helvetica-Light" font-size="24.0" fill="#000000" transform="matrix(1.00, 0.00, -0.00, -1.00, 860.7, 282.0)">,</text><text xml:space="preserve" font-family="Helvetica-Light" font-size="24.0" fill="#000000" transform="matrix(1.00, 0.00, -0.00, -1.00, 867.4, 282.0)">0</text><text xml:space="preserve" font-family="Helvetica-Light" font-size="24.0" fill="#000000" transform="matrix(1.00, 0.00, -0.00, -1.00, 880.7, 282.0)">5</text><text xml:space="preserve" font-family="Helvetica-Light" font-size="24.0" fill="#000000" transform="matrix(1.00, 0.00, -0.00, -1.00, 894.0, 282.0)">6</text></g></g></g></g><g><clipPath id="clip-139"><path d="M 597.0 485.0 L 925.2 485.0 L 925.2 252.5 L 597.0 252.5 Z M 597.0 485.0 "></path></clipPath><g clip-path="url(#clip-139)"><g><clipPath id="clip-140"><path d="M 815.9 407.5 L 816.9 407.5 L 816.9 485.0 L 815.9 485.0 Z M 815.9 407.5 "></path></clipPath><g clip-path="url(#clip-140)"><path d="M 220.4 1.0 L 220.4 78.5 " fill="none" stroke="#000000" stroke-width="1.00" stroke-dasharray="2.0, 2.0" transform="matrix(1.00, 0.00, 0.00, -1.00, 596.0, 486.0)"></path></g></g></g></g><g><clipPath id="clip-141"><path d="M 597.0 485.0 L 925.2 485.0 L 925.2 252.5 L 597.0 252.5 Z M 597.0 485.0 "></path></clipPath><g clip-path="url(#clip-141)"><g><clipPath id="clip-142"><path d="M 815.9 252.5 L 816.9 252.5 L 816.9 407.5 L 815.9 407.5 Z M 815.9 252.5 "></path></clipPath><g clip-path="url(#clip-142)"><path d="M 220.4 1.0 L 220.4 233.5 " fill="none" stroke="#000000" stroke-width="1.00" stroke-dasharray="2.0, 2.0" transform="matrix(1.00, 0.00, 0.00, -1.00, 596.0, 486.0)"></path></g></g></g></g><g><clipPath id="clip-143"><path d="M 597.0 485.0 L 925.2 485.0 L 925.2 252.5 L 597.0 252.5 Z M 597.0 485.0 "></path></clipPath><g clip-path="url(#clip-143)"><g><clipPath id="clip-144"><path d="M 597.0 329.5 L 707.6 329.5 L 707.6 330.5 L 597.0 330.5 Z M 597.0 329.5 "></path></clipPath><g clip-path="url(#clip-144)"><path d="M 1.0 156.0 L 111.6 156.0 " fill="none" stroke="#000000" stroke-width="1.00" stroke-dasharray="2.0, 2.0" transform="matrix(1.00, 0.00, 0.00, -1.00, 596.0, 486.0)"></path></g></g></g></g><g><clipPath id="clip-145"><path d="M 597.0 485.0 L 925.2 485.0 L 925.2 252.5 L 597.0 252.5 Z M 597.0 485.0 "></path></clipPath><g clip-path="url(#clip-145)"><g><clipPath id="clip-146"><path d="M 707.6 329.5 L 925.2 329.5 L 925.2 330.5 L 707.6 330.5 Z M 707.6 329.5 "></path></clipPath><g clip-path="url(#clip-146)"><path d="M 1.0 156.0 L 329.2 156.0 " fill="none" stroke="#000000" stroke-width="1.00" stroke-dasharray="2.0, 2.0" transform="matrix(1.00, 0.00, 0.00, -1.00, 596.0, 486.0)"></path></g></g></g></g><g><clipPath id="clip-147"><path d="M 597.0 485.0 L 925.2 485.0 L 925.2 252.5 L 597.0 252.5 Z M 597.0 485.0 "></path></clipPath><g clip-path="url(#clip-147)"><g><clipPath id="clip-148"><path d="M 707.1 407.5 L 708.1 407.5 L 708.1 485.0 L 707.1 485.0 Z M 707.1 407.5 "></path></clipPath><g clip-path="url(#clip-148)"><path d="M 111.6 1.0 L 111.6 78.5 " fill="none" stroke="#000000" stroke-width="1.00" stroke-dasharray="2.0, 2.0" transform="matrix(1.00, 0.00, 0.00, -1.00, 596.0, 486.0)"></path></g></g></g></g><g><clipPath id="clip-149"><path d="M 597.0 485.0 L 925.2 485.0 L 925.2 252.5 L 597.0 252.5 Z M 597.0 485.0 "></path></clipPath><g clip-path="url(#clip-149)"><path d="M 111.6 78.5 L 111.6 233.5 " fill="none" stroke="#000000" stroke-width="1.00" transform="matrix(1.00, 0.00, 0.00, -1.00, 596.0, 486.0)"></path><path d="M 1.0 78.5 L 329.2 78.5 " fill="none" stroke="#000000" stroke-width="1.00" transform="matrix(1.00, 0.00, 0.00, -1.00, 596.0, 486.0)"></path></g></g></g></svg>