<?xml version="1.0" encoding="UTF-8" standalone="no"?><svg xmlns="http://www.w3.org/2000/svg" xmlns:xlink="http://www.w3.org/1999/xlink" clip-rule="evenodd" stroke-miterlimit="4.00" viewBox="0 0 1024 768"><desc>SVG generated by Keynote</desc><defs></defs><g transform="matrix(1.00, 0.00, -0.00, -1.00, 0.0, 768.0)"><path d="M 0.0 768.0 L 1024.0 768.0 L 1024.0 0.0 L 0.0 0.0 Z M 0.0 768.0 " fill="#FEFFFF"></path><image xlink:href="73A67F11DD14C70A7F71AFFA353D0E4D.png" width="1114.00" height="150.00" transform="matrix(1.00, 0.00, -0.00, -1.00, -45.0, 673.3)" opacity="0.75"></image><text xml:space="preserve" font-family="Helvetica" font-size="64.0" fill="#000000" transform="matrix(1.00, 0.00, -0.00, -1.00, 315.0, 624.0)">S</text><text xml:space="preserve" font-family="Helvetica" font-size="64.0" fill="#000000" transform="matrix(1.00, 0.00, -0.00, -1.00, 357.7, 624.0)">c</text><text xml:space="preserve" font-family="Helvetica" font-size="64.0" fill="#000000" transform="matrix(1.00, 0.00, -0.00, -1.00, 389.7, 624.0)">a</text><text xml:space="preserve" font-family="Helvetica" font-size="64.0" fill="#000000" transform="matrix(1.00, 0.00, -0.00, -1.00, 425.3, 624.0)">t</text><text xml:space="preserve" font-family="Helvetica" font-size="64.0" fill="#000000" transform="matrix(1.00, 0.00, -0.00, -1.00, 443.1, 624.0)">t</text><text xml:space="preserve" font-family="Helvetica" font-size="64.0" fill="#000000" transform="matrix(1.00, 0.00, -0.00, -1.00, 460.8, 624.0)">e</text><text xml:space="preserve" font-family="Helvetica" font-size="64.0" fill="#000000" transform="matrix(1.00, 0.00, -0.00, -1.00, 496.4, 624.0)">r</text><text xml:space="preserve" font-family="Helvetica" font-size="64.0" fill="#000000" transform="matrix(1.00, 0.00, -0.00, -1.00, 517.8, 624.0)"> </text><text xml:space="preserve" font-family="Helvetica" font-size="64.0" fill="#000000" transform="matrix(1.00, 0.00, -0.00, -1.00, 535.5, 624.0)">M</text><text xml:space="preserve" font-family="Helvetica" font-size="64.0" fill="#000000" transform="matrix(1.00, 0.00, -0.00, -1.00, 588.8, 624.0)">a</text><text xml:space="preserve" font-family="Helvetica" font-size="64.0" fill="#000000" transform="matrix(1.00, 0.00, -0.00, -1.00, 624.4, 624.0)">t</text><text xml:space="preserve" font-family="Helvetica" font-size="64.0" fill="#000000" transform="matrix(1.00, 0.00, -0.00, -1.00, 642.2, 624.0)">r</text><text xml:space="preserve" font-family="Helvetica" font-size="64.0" fill="#000000" transform="matrix(1.00, 0.00, -0.00, -1.00, 663.5, 624.0)">i</text><text xml:space="preserve" font-family="Helvetica" font-size="64.0" fill="#000000" transform="matrix(1.00, 0.00, -0.00, -1.00, 677.8, 624.0)">x</text><image xlink:href="../../6AD170AA-CAA7-417F-93D6-17E14A9B3648/assets/EBC9381A19FBE72E95A26EE6AAF5E06C.png" width="580.00" height="880.00" transform="matrix(1.00, 0.00, -0.00, -1.00, 222.0, 757.3)"></image><image xlink:href="1693282A68E35FB9763104A0D1482B02.png" width="500.00" height="500.00" transform="matrix(1.00, 0.00, -0.00, -1.00, 262.0, 568.0)"></image></g></svg>