<?xml version="1.0" encoding="UTF-8" standalone="no"?><svg xmlns="http://www.w3.org/2000/svg" xmlns:xlink="http://www.w3.org/1999/xlink" clip-rule="evenodd" stroke-miterlimit="4.00" viewBox="0 0 1024 768"><desc>SVG generated by Keynote</desc><defs></defs><g transform="matrix(1.00, 0.00, -0.00, -1.00, 0.0, 768.0)"><path d="M 0.0 768.0 L 1024.0 768.0 L 1024.0 0.0 L 0.0 0.0 Z M 0.0 768.0 " fill="#FEFFFF"></path><image xlink:href="../../C754BE96-E398-4FF1-B069-1541D8C7CE0E/assets/1A8B0164715115DD4AE547185C5FFEB7.png" width="1114.00" height="150.00" transform="matrix(1.00, 0.00, -0.00, -1.00, -45.0, 667.0)" opacity="0.75"></image><text xml:space="preserve" font-family="Helvetica" font-size="64.0" fill="#000000" transform="matrix(1.00, 0.00, -0.00, -1.00, 117.0, 624.0)">A</text><text xml:space="preserve" font-family="Helvetica" font-size="64.0" fill="#000000" transform="matrix(1.00, 0.00, -0.00, -1.00, 156.2, 624.0)"> </text><text xml:space="preserve" font-family="Helvetica" font-size="64.0" fill="#000000" transform="matrix(1.00, 0.00, -0.00, -1.00, 174.0, 624.0)">U</text><text xml:space="preserve" font-family="Helvetica" font-size="64.0" fill="#000000" transform="matrix(1.00, 0.00, -0.00, -1.00, 220.2, 624.0)">s</text><text xml:space="preserve" font-family="Helvetica" font-size="64.0" fill="#000000" transform="matrix(1.00, 0.00, -0.00, -1.00, 252.2, 624.0)">e</text><text xml:space="preserve" font-family="Helvetica" font-size="64.0" fill="#000000" transform="matrix(1.00, 0.00, -0.00, -1.00, 287.8, 624.0)">r</text><text xml:space="preserve" font-family="Helvetica" font-size="64.0" fill="#000000" transform="matrix(1.00, 0.00, -0.00, -1.00, 311.5, 624.0)">’</text><text xml:space="preserve" font-family="Helvetica" font-size="64.0" fill="#000000" transform="matrix(1.00, 0.00, -0.00, -1.00, 324.6, 624.0)">s</text><text xml:space="preserve" font-family="Helvetica" font-size="64.0" fill="#000000" transform="matrix(1.00, 0.00, -0.00, -1.00, 356.6, 624.0)"> </text><text xml:space="preserve" font-family="Helvetica" font-size="64.0" fill="#000000" transform="matrix(1.00, 0.00, -0.00, -1.00, 374.4, 624.0)">D</text><text xml:space="preserve" font-family="Helvetica" font-size="64.0" fill="#000000" transform="matrix(1.00, 0.00, -0.00, -1.00, 420.6, 624.0)">a</text><text xml:space="preserve" font-family="Helvetica" font-size="64.0" fill="#000000" transform="matrix(1.00, 0.00, -0.00, -1.00, 456.2, 624.0)">i</text><text xml:space="preserve" font-family="Helvetica" font-size="64.0" fill="#000000" transform="matrix(1.00, 0.00, -0.00, -1.00, 470.4, 624.0)">l</text><text xml:space="preserve" font-family="Helvetica" font-size="64.0" fill="#000000" transform="matrix(1.00, 0.00, -0.00, -1.00, 484.7, 624.0)">y</text><text xml:space="preserve" font-family="Helvetica" font-size="64.0" fill="#000000" transform="matrix(1.00, 0.00, -0.00, -1.00, 516.7, 624.0)"> </text><text xml:space="preserve" font-family="Helvetica" font-size="64.0" fill="#000000" transform="matrix(1.00, 0.00, -0.00, -1.00, 534.4, 624.0)">H</text><text xml:space="preserve" font-family="Helvetica" font-size="64.0" fill="#000000" transform="matrix(1.00, 0.00, -0.00, -1.00, 580.7, 624.0)">a</text><text xml:space="preserve" font-family="Helvetica" font-size="64.0" fill="#000000" transform="matrix(1.00, 0.00, -0.00, -1.00, 616.3, 624.0)">b</text><text xml:space="preserve" font-family="Helvetica" font-size="64.0" fill="#000000" transform="matrix(1.00, 0.00, -0.00, -1.00, 651.9, 624.0)">i</text><text xml:space="preserve" font-family="Helvetica" font-size="64.0" fill="#000000" transform="matrix(1.00, 0.00, -0.00, -1.00, 666.1, 624.0)">t</text><text xml:space="preserve" font-family="Helvetica" font-size="64.0" fill="#000000" transform="matrix(1.00, 0.00, -0.00, -1.00, 683.9, 624.0)"> </text><text xml:space="preserve" font-family="Helvetica" font-size="64.0" fill="#000000" transform="matrix(1.00, 0.00, -0.00, -1.00, 701.6, 624.0)">R</text><text xml:space="preserve" font-family="Helvetica" font-size="64.0" fill="#000000" transform="matrix(1.00, 0.00, -0.00, -1.00, 747.9, 624.0)">e</text><text xml:space="preserve" font-family="Helvetica" font-size="64.0" fill="#000000" transform="matrix(1.00, 0.00, -0.00, -1.00, 783.5, 624.0)">c</text><text xml:space="preserve" font-family="Helvetica" font-size="64.0" fill="#000000" transform="matrix(1.00, 0.00, -0.00, -1.00, 815.5, 624.0)">o</text><text xml:space="preserve" font-family="Helvetica" font-size="64.0" fill="#000000" transform="matrix(1.00, 0.00, -0.00, -1.00, 851.1, 624.0)">r</text><text xml:space="preserve" font-family="Helvetica" font-size="64.0" fill="#000000" transform="matrix(1.00, 0.00, -0.00, -1.00, 872.4, 624.0)">d</text><g><clipPath id="clip-362"><path d="M 112.0 129.0 L 912.0 129.0 L 912.0 529.0 L 112.0 529.0 Z M 112.0 129.0 "></path></clipPath><g clip-path="url(#clip-362)"><image xlink:href="../../C754BE96-E398-4FF1-B069-1541D8C7CE0E/assets/55E6676C625230581233A74BAE5AFA3C.png" width="800.00" height="400.00" transform="matrix(1.00, 0.00, -0.00, -1.00, 112.0, 529.0)"></image></g></g><g><clipPath id="clip-363"><path d="M 530.4 495.3 L 543.4 495.3 L 543.4 508.3 L 530.4 508.3 Z M 530.4 495.3 "></path></clipPath><g clip-path="url(#clip-363)"><path d="M 540.4 505.4 C 542.4 503.4 542.4 500.3 540.4 498.3 C 538.5 496.4 535.3 496.4 533.4 498.3 C 531.4 500.3 531.4 503.4 533.4 505.4 C 535.3 507.3 538.5 507.3 540.4 505.4 Z M 540.4 505.4 " fill="#00BA00"></path><path d="M 8.5 1.5 C 10.5 3.4 10.5 6.6 8.5 8.5 C 6.6 10.5 3.4 10.5 1.5 8.5 C -0.5 6.6 -0.5 3.4 1.5 1.5 C 3.4 -0.5 6.6 -0.5 8.5 1.5 Z M 8.5 1.5 " fill="none" stroke="#007D01" stroke-width="1.00" transform="matrix(1.00, 0.00, 0.00, -1.00, 531.9, 506.8)"></path></g></g><g><clipPath id="clip-364"><path d="M 697.2 495.3 L 710.2 495.3 L 710.2 508.3 L 697.2 508.3 Z M 697.2 495.3 "></path></clipPath><g clip-path="url(#clip-364)"><path d="M 707.2 505.4 C 709.1 503.4 709.1 500.3 707.2 498.3 C 705.2 496.4 702.1 496.4 700.1 498.3 C 698.2 500.3 698.2 503.4 700.1 505.4 C 702.1 507.3 705.2 507.3 707.2 505.4 Z M 707.2 505.4 " fill="#FF2600"></path><path d="M 8.5 1.5 C 10.5 3.4 10.5 6.6 8.5 8.5 C 6.6 10.5 3.4 10.5 1.5 8.5 C -0.5 6.6 -0.5 3.4 1.5 1.5 C 3.4 -0.5 6.6 -0.5 8.5 1.5 Z M 8.5 1.5 " fill="none" stroke="#7E0C00" stroke-width="1.00" transform="matrix(1.00, 0.00, 0.00, -1.00, 698.7, 506.8)"></path></g></g><g><clipPath id="clip-365"><path d="M 294.9 485.2 L 396.9 485.2 L 396.9 518.5 L 294.9 518.5 Z M 294.9 485.2 "></path></clipPath><g clip-path="url(#clip-365)"><path d="M 295.9 517.5 L 395.9 517.5 L 395.9 486.2 L 295.9 486.2 Z M 295.9 517.5 " fill="#FEFFFF"></path></g></g><g><clipPath id="clip-366"><path d="M 546.8 485.2 L 596.0 485.2 L 596.0 518.5 L 546.8 518.5 Z M 546.8 485.2 "></path></clipPath><g clip-path="url(#clip-366)"><path d="M 547.8 517.5 L 595.0 517.5 L 595.0 486.2 L 547.8 486.2 Z M 547.8 517.5 " fill="#FEFFFF"></path></g></g><text xml:space="preserve" font-family="Helvetica-Light" font-size="24.0" fill="#000000" transform="matrix(1.00, 0.00, -0.00, -1.00, 644.0, 39.0)">*</text><text xml:space="preserve" font-family="Helvetica-Light" font-size="24.0" fill="#000000" transform="matrix(1.00, 0.00, -0.00, -1.00, 653.3, 39.0)"> </text><text xml:space="preserve" font-family="Helvetica-Light" font-size="24.0" fill="#000000" transform="matrix(1.00, 0.00, -0.00, -1.00, 660.0, 39.0)">H</text><text xml:space="preserve" font-family="Helvetica-Light" font-size="24.0" fill="#000000" transform="matrix(1.00, 0.00, -0.00, -1.00, 677.3, 39.0)">a</text><text xml:space="preserve" font-family="Helvetica-Light" font-size="24.0" fill="#000000" transform="matrix(1.00, 0.00, -0.00, -1.00, 690.7, 39.0)">b</text><text xml:space="preserve" font-family="Helvetica-Light" font-size="24.0" fill="#000000" transform="matrix(1.00, 0.00, -0.00, -1.00, 705.3, 39.0)">i</text><text xml:space="preserve" font-family="Helvetica-Light" font-size="24.0" fill="#000000" transform="matrix(1.00, 0.00, -0.00, -1.00, 710.7, 39.0)">t</text><text xml:space="preserve" font-family="Helvetica-Light" font-size="24.0" fill="#000000" transform="matrix(1.00, 0.00, -0.00, -1.00, 717.3, 39.0)">s</text><text xml:space="preserve" font-family="Helvetica-Light" font-size="24.0" fill="#000000" transform="matrix(1.00, 0.00, -0.00, -1.00, 729.3, 39.0)"> </text><text xml:space="preserve" font-family="Helvetica-Light" font-size="24.0" fill="#000000" transform="matrix(1.00, 0.00, -0.00, -1.00, 736.0, 39.0)">a</text><text xml:space="preserve" font-family="Helvetica-Light" font-size="24.0" fill="#000000" transform="matrix(1.00, 0.00, -0.00, -1.00, 749.4, 39.0)">r</text><text xml:space="preserve" font-family="Helvetica-Light" font-size="24.0" fill="#000000" transform="matrix(1.00, 0.00, -0.00, -1.00, 756.9, 39.0)">e</text><text xml:space="preserve" font-family="Helvetica-Light" font-size="24.0" fill="#000000" transform="matrix(1.00, 0.00, -0.00, -1.00, 770.3, 39.0)"> </text><text xml:space="preserve" font-family="Helvetica-Light" font-size="24.0" fill="#000000" transform="matrix(1.00, 0.00, -0.00, -1.00, 776.9, 39.0)">b</text><text xml:space="preserve" font-family="Helvetica-Light" font-size="24.0" fill="#000000" transform="matrix(1.00, 0.00, -0.00, -1.00, 791.6, 39.0)">l</text><text xml:space="preserve" font-family="Helvetica-Light" font-size="24.0" fill="#000000" transform="matrix(1.00, 0.00, -0.00, -1.00, 796.9, 39.0)">u</text><text xml:space="preserve" font-family="Helvetica-Light" font-size="24.0" fill="#000000" transform="matrix(1.00, 0.00, -0.00, -1.00, 810.3, 39.0)">r</text><text xml:space="preserve" font-family="Helvetica-Light" font-size="24.0" fill="#000000" transform="matrix(1.00, 0.00, -0.00, -1.00, 818.3, 39.0)">r</text><text xml:space="preserve" font-family="Helvetica-Light" font-size="24.0" fill="#000000" transform="matrix(1.00, 0.00, -0.00, -1.00, 825.8, 39.0)">e</text><text xml:space="preserve" font-family="Helvetica-Light" font-size="24.0" fill="#000000" transform="matrix(1.00, 0.00, -0.00, -1.00, 839.2, 39.0)">d</text><text xml:space="preserve" font-family="Helvetica-Light" font-size="24.0" fill="#000000" transform="matrix(1.00, 0.00, -0.00, -1.00, 853.8, 39.0)"> </text><text xml:space="preserve" font-family="Helvetica-Light" font-size="24.0" fill="#000000" transform="matrix(1.00, 0.00, -0.00, -1.00, 860.5, 39.0)">o</text><text xml:space="preserve" font-family="Helvetica-Light" font-size="24.0" fill="#000000" transform="matrix(1.00, 0.00, -0.00, -1.00, 873.8, 39.0)">u</text><text xml:space="preserve" font-family="Helvetica-Light" font-size="24.0" fill="#000000" transform="matrix(1.00, 0.00, -0.00, -1.00, 887.2, 39.0)">t</text><text xml:space="preserve" font-family="Helvetica-Light" font-size="24.0" fill="#000000" transform="matrix(1.00, 0.00, -0.00, -1.00, 893.9, 39.0)"> </text><text xml:space="preserve" font-family="Helvetica-Light" font-size="24.0" fill="#000000" transform="matrix(1.00, 0.00, -0.00, -1.00, 900.5, 39.0)">f</text><text xml:space="preserve" font-family="Helvetica-Light" font-size="24.0" fill="#000000" transform="matrix(1.00, 0.00, -0.00, -1.00, 907.2, 39.0)">o</text><text xml:space="preserve" font-family="Helvetica-Light" font-size="24.0" fill="#000000" transform="matrix(1.00, 0.00, -0.00, -1.00, 920.6, 39.0)">r</text><text xml:space="preserve" font-family="Helvetica-Light" font-size="24.0" fill="#000000" transform="matrix(1.00, 0.00, -0.00, -1.00, 928.5, 39.0)"> </text><text xml:space="preserve" font-family="Helvetica-Light" font-size="24.0" fill="#000000" transform="matrix(1.00, 0.00, -0.00, -1.00, 935.2, 39.0)">p</text><text xml:space="preserve" font-family="Helvetica-Light" font-size="24.0" fill="#000000" transform="matrix(1.00, 0.00, -0.00, -1.00, 949.9, 39.0)">r</text><text xml:space="preserve" font-family="Helvetica-Light" font-size="24.0" fill="#000000" transform="matrix(1.00, 0.00, -0.00, -1.00, 957.9, 39.0)">i</text><text xml:space="preserve" font-family="Helvetica-Light" font-size="24.0" fill="#000000" transform="matrix(1.00, 0.00, -0.00, -1.00, 963.2, 39.0)">v</text><text xml:space="preserve" font-family="Helvetica-Light" font-size="24.0" fill="#000000" transform="matrix(1.00, 0.00, -0.00, -1.00, 975.2, 39.0)">a</text><text xml:space="preserve" font-family="Helvetica-Light" font-size="24.0" fill="#000000" transform="matrix(1.00, 0.00, -0.00, -1.00, 988.5, 39.0)">c</text><text xml:space="preserve" font-family="Helvetica-Light" font-size="24.0" fill="#000000" transform="matrix(1.00, 0.00, -0.00, -1.00, 1001.9, 39.0)">y</text><text xml:space="preserve" font-family="Helvetica-Light" font-size="24.0" fill="#000000" transform="matrix(1.00, 0.00, -0.00, -1.00, 1011.7, 39.0)">.</text></g></svg>